<svg width="67" height="74" viewBox="0 0 67 74" fill="none" xmlns="http://www.w3.org/2000/svg">
<path d="M66.3709 25.7688H44.4587V73.625H37.1546V51.5375H29.8505V73.625H22.5465V25.7688H0.634277V18.4062H66.3709V25.7688ZM33.5026 0C35.4397 0 37.2976 0.775689 38.6673 2.15643C40.0371 3.53716 40.8066 5.40984 40.8066 7.3625C40.8066 9.31516 40.0371 11.1878 38.6673 12.5686C37.2976 13.9493 35.4397 14.725 33.5026 14.725C31.5654 14.725 29.7076 13.9493 28.3378 12.5686C26.968 11.1878 26.1985 9.31516 26.1985 7.3625C26.1985 3.27631 29.4488 0 33.5026 0Z" fill="#4E8CF5"/>
</svg>
