<svg width="70" height="74" viewBox="0 0 70 74" fill="none" xmlns="http://www.w3.org/2000/svg">
<path d="M34.975 0C29.0057 0 25.4326 0.906154 23.1614 2.03601C22.0244 2.60236 21.2171 3.19702 20.6742 3.80585C20.1284 4.41467 19.7844 5.3095 19.7844 5.3095C19.6953 5.53692 19.6361 5.77487 19.6082 6.01743L18.096 25.3978C18.0761 25.5167 18.1159 25.7093 18.096 25.8395L17.9197 27.7878C17.9032 27.9639 17.9032 28.1412 17.9197 28.3173C17.9197 37.662 25.5946 45.3077 34.975 45.3077C44.3555 45.3077 52.0304 37.662 52.0304 28.3173V27.8756C52.0308 27.8463 52.0308 27.817 52.0304 27.7878L50.3419 6.01743C50.314 5.77487 50.2548 5.53692 50.1657 5.3095C50.1657 5.3095 49.8217 4.41467 49.2759 3.80585C48.733 3.19419 47.9257 2.59953 46.7887 2.03601C44.5175 0.903322 40.9444 0 34.975 0ZM34.975 45.3077C16.2142 45.3077 0.86438 54.1031 0.86438 62.0319V73.625H69.0857V62.0319C69.0857 54.4995 55.2084 46.2025 37.7295 45.3955C36.8126 45.3352 35.8939 45.3059 34.975 45.3077ZM34.975 5.66346C40.3759 5.66346 43.0735 6.51298 44.2134 7.07933C44.5943 7.26905 44.6397 7.34268 44.7478 7.43329L45.9018 21.9459C43.2867 22.1045 39.7221 22.6538 34.975 22.6538C30.228 22.6538 26.6663 22.1045 24.0483 21.9459L25.2023 7.43329C25.3075 7.34268 25.3558 7.26905 25.7367 7.07933C26.8766 6.51298 29.5742 5.66346 34.975 5.66346ZM32.6641 8.49519V11.8593H29.2899V16.4609H32.6669V19.8221H37.2832V16.458H40.6602V11.8593H37.2832V8.49519H32.6669H32.6641ZM26.4474 51.6791L33.7329 67.9615H6.54949V62.0319C6.54949 59.9223 13.798 53.7434 26.4474 51.6791ZM43.5027 51.6791C56.1521 53.7463 63.4006 59.9223 63.4006 62.0319V67.9615H36.2172L43.5027 51.6791Z" fill="#4E8CF5"/>
</svg>
