<svg width="90" height="74" viewBox="0 0 90 74" fill="none" xmlns="http://www.w3.org/2000/svg">
<path d="M25.1653 0C18.6448 0 12.3914 2.5585 7.78076 7.11265C3.17008 11.6668 0.579834 17.8436 0.579834 24.2841C0.579834 26.4918 0.982142 28.6994 1.56325 30.907H19.8012L25.4782 16.0275C26.8193 12.4953 32.094 12.1421 33.7926 16.0275L43.0457 39.7376L45.683 33.4679C46.2641 32.0109 47.8287 30.907 49.7508 30.907H88.9982C89.5793 28.6994 89.9816 26.4918 89.9816 24.2841C89.9816 17.8436 87.3914 11.6668 82.7807 7.11265C78.17 2.5585 71.9166 0 65.3961 0C57.0818 0 49.7508 4.10622 45.2807 10.3318C40.8106 4.10622 33.4797 0 25.1653 0ZM5.04992 37.53C3.86438 37.53 2.7274 37.9952 1.88909 38.8232C1.05079 39.6512 0.579834 40.7743 0.579834 41.9453C0.579834 43.1163 1.05079 44.2393 1.88909 45.0674C2.7274 45.8954 3.86438 46.3606 5.04992 46.3606H15.9569L40.8106 70.6447C45.2807 74.6184 45.2807 74.6184 49.7508 70.6447L74.6045 46.3606H85.5115C86.6971 46.3606 87.8341 45.8954 88.6724 45.0674C89.5107 44.2393 89.9816 43.1163 89.9816 41.9453C89.9816 40.7743 89.5107 39.6512 88.6724 38.8232C87.8341 37.9952 86.6971 37.53 85.5115 37.53H51.5389L47.3817 47.6852C45.5936 52.1446 40.453 51.5265 38.7991 47.8176L29.6354 24.2841L25.3441 34.5717C24.6736 36.2496 23.1538 37.53 21.1422 37.53H5.04992Z" fill="#4E8CF5"/>
</svg>
