<svg width="520" height="406" viewBox="0 0 520 406" fill="none" xmlns="http://www.w3.org/2000/svg">
<path opacity="0.6" d="M301.638 71.5384C268.356 70.2861 236.632 58.6529 206.385 45.9279C176.138 33.2029 146.159 19.1013 113.656 12.3584C92.7584 8.01672 68.8591 7.40608 52.0244 19.536C35.8207 31.2054 30.5868 51.3512 27.7715 70.0428C25.654 84.1082 24.4256 98.9083 30.214 112.078C34.2434 121.217 41.394 128.902 46.3412 137.658C63.5487 168.122 51.3839 205.692 32.7329 235.463C23.9858 249.435 13.8382 262.73 7.08903 277.587C0.339874 292.444 -2.78615 309.464 3.12175 324.616C8.97707 339.623 22.9247 350.915 38.0386 358.848C68.7348 374.947 104.904 379.552 140.175 382.192C218.249 387.972 296.743 385.467 375.023 382.963C403.994 382.031 433.094 381.095 461.591 376.235C477.417 373.539 493.759 369.265 505.25 358.946C519.833 345.843 523.452 323.664 513.677 307.233C497.282 279.682 451.955 272.836 440.493 243.267C434.188 226.992 440.665 208.859 449.833 193.764C469.492 161.385 502.454 132.975 504.189 95.9586C505.384 70.5345 489.539 45.0792 465.037 33.0476C439.36 20.4261 403.75 22.0199 384.807 42.8799C365.301 64.3712 331.02 72.6406 301.638 71.5384Z" fill="#587EEC"/>
<path d="M115.793 375.309C115.793 375.309 89.5033 353.792 84.5371 326.422C82.5231 314.927 77.1211 304.448 69.1412 296.558C65.3237 292.846 61.2007 289.52 56.8235 286.622" stroke="#9AB1F3" stroke-width="2" stroke-miterlimit="10"/>
<path d="M53.6066 269.379C55.9105 272.753 56.9525 287.052 56.9525 287.052C56.9525 287.052 44.6348 281.799 42.3261 278.43C41.2175 276.811 40.7486 274.781 41.0224 272.787C41.2963 270.793 42.2905 268.999 43.7864 267.798C45.2823 266.598 47.1573 266.09 48.9989 266.387C50.8406 266.683 52.498 267.76 53.6066 269.379Z" fill="#587EEC"/>
<path d="M75.6993 280.598C75.9383 284.785 69.6432 297.401 69.6432 297.401C69.6432 297.401 61.9333 285.737 61.6895 281.551C61.5968 279.555 62.2342 277.6 63.4637 276.109C64.6931 274.619 66.4155 273.712 68.2577 273.587C70.0999 273.462 71.9135 274.128 73.3055 275.44C74.6975 276.752 75.5559 278.606 75.6945 280.598H75.6993Z" fill="#587EEC"/>
<path d="M97.1128 312.848C95.3729 316.595 84.0494 324.047 84.0494 324.047C84.0494 324.047 82.8401 309.764 84.58 306.017C85.4365 304.256 86.8976 302.928 88.649 302.321C90.4004 301.713 92.302 301.875 93.9446 302.77C95.5872 303.665 96.8395 305.223 97.432 307.108C98.0246 308.993 97.9099 311.054 97.1128 312.848Z" fill="#587EEC"/>
<path d="M108.245 341.186C107.112 345.197 97.1174 354.61 97.1174 354.61C97.1174 354.61 93.6903 340.756 94.8231 336.741C95.3676 334.814 96.5968 333.2 98.2403 332.254C99.8839 331.308 101.807 331.108 103.587 331.698C105.367 332.287 106.857 333.618 107.731 335.397C108.605 337.177 108.789 339.259 108.245 341.186Z" fill="#587EEC"/>
<path d="M58.2478 307.544C62.0717 308.103 74.1599 302.193 74.1599 302.193C74.1599 302.193 63.9597 293.044 60.1167 292.485C58.2722 292.217 56.4048 292.753 54.9253 293.975C53.4458 295.197 52.4754 297.006 52.2276 299.003C51.9797 301 52.4748 303.022 53.6038 304.623C54.7328 306.225 56.4033 307.276 58.2478 307.544Z" fill="#587EEC"/>
<path d="M71.6553 340.513C75.4792 339.804 85.3591 330.257 85.3591 330.257C85.3591 330.257 73.094 324.833 69.2749 325.542C68.3606 325.705 67.4849 326.061 66.6986 326.592C65.9122 327.122 65.2307 327.816 64.6934 328.634C64.1561 329.451 63.7736 330.375 63.5681 331.353C63.3625 332.332 63.3379 333.344 63.4957 334.333C63.6535 335.321 63.9906 336.266 64.4875 337.113C64.9844 337.96 65.6312 338.691 66.3907 339.266C67.1502 339.841 68.0073 340.247 68.9126 340.461C69.8178 340.675 70.7532 340.693 71.6649 340.513H71.6553Z" fill="#587EEC"/>
<path d="M88.743 370.626C92.6195 370.626 103.852 363.024 103.852 363.024C103.852 363.024 92.6147 355.432 88.7383 355.432C86.8773 355.432 85.0925 356.233 83.7766 357.657C82.4607 359.082 81.7214 361.014 81.7214 363.029C81.7214 365.044 82.4607 366.976 83.7766 368.401C85.0925 369.825 86.8773 370.626 88.7383 370.626H88.743Z" fill="#587EEC"/>
<path d="M371.18 189.205C371.18 189.205 387.384 158.13 411.809 149.177C422.065 145.49 430.941 138.301 437.104 128.69C439.994 124.095 442.489 119.222 444.556 114.133" stroke="#9AB1F3" stroke-width="2" stroke-miterlimit="10"/>
<path d="M459.889 108.44C457.107 111.359 444.159 114.381 444.159 114.381C444.159 114.381 447.337 100.461 450.119 97.537C451.462 96.1759 453.245 95.4401 455.084 95.488C456.923 95.5359 458.671 96.3636 459.951 97.793C461.232 99.2223 461.943 101.139 461.932 103.13C461.92 105.122 461.187 107.029 459.889 108.44Z" fill="#587EEC"/>
<path d="M452.567 133.606C448.743 134.424 436.377 129.342 436.377 129.342C436.377 129.342 446.032 119.51 449.832 118.707C450.745 118.488 451.689 118.469 452.608 118.65C453.528 118.831 454.404 119.209 455.187 119.762C455.97 120.315 456.643 121.031 457.166 121.87C457.689 122.708 458.053 123.651 458.235 124.643C458.417 125.636 458.414 126.658 458.227 127.649C458.039 128.64 457.67 129.581 457.142 130.416C456.614 131.251 455.938 131.963 455.152 132.511C454.366 133.059 453.487 133.431 452.567 133.606Z" fill="#587EEC"/>
<path d="M425.914 160.867C422.253 159.496 413.931 148.339 413.931 148.339C413.931 148.339 426.837 145.141 430.508 146.512C431.39 146.829 432.205 147.332 432.906 147.993C433.607 148.653 434.179 149.458 434.591 150.36C435.002 151.262 435.243 152.244 435.302 153.248C435.36 154.252 435.233 155.259 434.929 156.209C434.624 157.16 434.149 158.036 433.53 158.786C432.91 159.536 432.159 160.145 431.321 160.578C430.482 161.012 429.572 161.26 428.644 161.31C427.716 161.36 426.788 161.209 425.914 160.867Z" fill="#587EEC"/>
<path d="M401.422 176.578C397.598 175.895 387.675 166.399 387.675 166.399C387.675 166.399 399.907 160.883 403.726 161.566C405.564 161.893 407.207 162.998 408.293 164.636C409.379 166.275 409.819 168.314 409.517 170.304C409.214 172.294 408.194 174.072 406.681 175.248C405.167 176.424 403.284 176.9 401.446 176.573L401.422 176.578Z" fill="#587EEC"/>
<path d="M425.58 118.459C425.575 122.656 432.606 134.832 432.606 134.832C432.606 134.832 439.628 122.671 439.628 118.48C439.652 117.466 439.489 116.457 439.147 115.512C438.806 114.568 438.293 113.707 437.639 112.98C436.985 112.254 436.204 111.676 435.341 111.282C434.477 110.888 433.55 110.685 432.613 110.685C431.676 110.685 430.749 110.888 429.886 111.282C429.022 111.676 428.241 112.254 427.587 112.98C426.933 113.707 426.421 114.568 426.079 115.512C425.738 116.457 425.574 117.466 425.599 118.48L425.58 118.459Z" fill="#587EEC"/>
<path d="M397.173 137.223C398.33 141.229 408.386 150.569 408.386 150.569C408.386 150.569 411.732 136.69 410.566 132.685C409.961 130.829 408.715 129.3 407.089 128.419C405.464 127.538 403.586 127.375 401.852 127.963C400.117 128.551 398.661 129.845 397.79 131.573C396.919 133.3 396.701 135.325 397.182 137.223H397.173Z" fill="#587EEC"/>
<path d="M371.902 159.563C372.418 163.703 380.869 174.762 380.869 174.762C380.869 174.762 386.323 161.695 385.806 157.54C385.704 156.533 385.417 155.558 384.961 154.674C384.506 153.789 383.892 153.012 383.155 152.387C382.418 151.763 381.573 151.305 380.67 151.04C379.767 150.775 378.824 150.707 377.897 150.842C376.97 150.977 376.077 151.312 375.271 151.826C374.465 152.34 373.761 153.023 373.203 153.836C372.644 154.648 372.241 155.574 372.018 156.557C371.795 157.541 371.755 158.563 371.902 159.563Z" fill="#587EEC"/>
<path opacity="0.25" d="M459.889 108.44C457.107 111.359 444.159 114.381 444.159 114.381C444.159 114.381 447.337 100.461 450.119 97.537C451.462 96.1759 453.245 95.4401 455.084 95.488C456.923 95.5359 458.671 96.3636 459.951 97.793C461.232 99.2223 461.943 101.139 461.932 103.13C461.92 105.122 461.187 107.029 459.889 108.44Z" fill="black"/>
<path opacity="0.25" d="M452.567 133.606C448.743 134.424 436.377 129.342 436.377 129.342C436.377 129.342 446.032 119.51 449.832 118.707C450.745 118.488 451.689 118.469 452.608 118.65C453.528 118.831 454.404 119.209 455.187 119.762C455.97 120.315 456.643 121.031 457.166 121.87C457.689 122.708 458.053 123.651 458.235 124.643C458.417 125.636 458.414 126.658 458.227 127.649C458.039 128.64 457.67 129.581 457.142 130.416C456.614 131.251 455.938 131.963 455.152 132.511C454.366 133.059 453.487 133.431 452.567 133.606Z" fill="black"/>
<path opacity="0.25" d="M425.914 160.867C422.253 159.496 413.931 148.339 413.931 148.339C413.931 148.339 426.837 145.141 430.508 146.512C431.39 146.829 432.205 147.332 432.906 147.993C433.607 148.653 434.179 149.458 434.591 150.36C435.002 151.262 435.243 152.244 435.302 153.248C435.36 154.252 435.233 155.259 434.929 156.209C434.624 157.16 434.149 158.036 433.53 158.786C432.91 159.536 432.159 160.145 431.321 160.578C430.482 161.012 429.572 161.26 428.644 161.31C427.716 161.36 426.788 161.209 425.914 160.867Z" fill="black"/>
<path opacity="0.25" d="M401.422 176.578C397.598 175.895 387.675 166.399 387.675 166.399C387.675 166.399 399.907 160.883 403.726 161.566C405.564 161.893 407.207 162.998 408.293 164.636C409.379 166.275 409.819 168.314 409.517 170.304C409.214 172.294 408.194 174.072 406.681 175.248C405.167 176.424 403.284 176.9 401.446 176.573L401.422 176.578Z" fill="black"/>
<path opacity="0.25" d="M425.58 118.459C425.575 122.656 432.606 134.832 432.606 134.832C432.606 134.832 439.628 122.671 439.628 118.48C439.652 117.466 439.489 116.457 439.147 115.512C438.806 114.568 438.293 113.707 437.639 112.98C436.985 112.254 436.204 111.676 435.341 111.282C434.477 110.888 433.55 110.685 432.613 110.685C431.676 110.685 430.749 110.888 429.886 111.282C429.022 111.676 428.241 112.254 427.587 112.98C426.933 113.707 426.421 114.568 426.079 115.512C425.738 116.457 425.574 117.466 425.599 118.48L425.58 118.459Z" fill="black"/>
<path opacity="0.25" d="M397.173 137.223C398.33 141.229 408.386 150.569 408.386 150.569C408.386 150.569 411.732 136.69 410.566 132.685C409.961 130.829 408.715 129.3 407.089 128.419C405.464 127.538 403.586 127.375 401.852 127.963C400.117 128.551 398.661 129.845 397.79 131.573C396.919 133.3 396.701 135.325 397.182 137.223H397.173Z" fill="black"/>
<path opacity="0.25" d="M371.902 159.563C372.418 163.703 380.869 174.762 380.869 174.762C380.869 174.762 386.323 161.695 385.806 157.54C385.704 156.533 385.417 155.558 384.961 154.674C384.506 153.789 383.892 153.012 383.155 152.387C382.418 151.763 381.573 151.305 380.67 151.04C379.767 150.775 378.824 150.707 377.897 150.842C376.97 150.977 376.077 151.312 375.271 151.826C374.465 152.34 373.761 153.023 373.203 153.836C372.644 154.648 372.241 155.574 372.018 156.557C371.795 157.541 371.755 158.563 371.902 159.563Z" fill="black"/>
<path d="M372.112 188.589C372.112 188.589 375.296 153.069 394.252 134.18C402.248 126.308 407.672 115.843 409.71 104.352C410.638 98.8899 411.101 93.3467 411.092 87.7927" stroke="#9AB1F3" stroke-width="2" stroke-miterlimit="10"/>
<path d="M422.974 75.8077C421.54 79.6992 410.814 88.1446 410.814 88.1446C410.814 88.1446 408.511 74.0224 409.959 70.1309C410.656 68.2622 412.01 66.77 413.724 65.9825C415.437 65.1949 417.37 65.1766 419.096 65.9314C420.822 66.6863 422.2 68.1525 422.927 70.0076C423.655 71.8627 423.672 73.9546 422.974 75.8232V75.8077Z" fill="#587EEC"/>
<path d="M425.704 102.055C422.535 104.466 409.309 105.258 409.309 105.258C409.309 105.258 414.462 92.0413 417.631 89.6298C418.382 89.0208 419.239 88.5813 420.15 88.3373C421.061 88.0933 422.009 88.0497 422.936 88.2091C423.863 88.3686 424.751 88.7278 425.548 89.2655C426.344 89.8033 427.033 90.5086 427.573 91.3397C428.114 92.1709 428.494 93.1109 428.693 94.1042C428.892 95.0975 428.904 96.1239 428.73 97.1225C428.555 98.1212 428.198 99.0718 427.678 99.9181C427.158 100.764 426.487 101.489 425.704 102.05V102.055Z" fill="#587EEC"/>
<path d="M411.527 138.682C407.665 139.034 395.878 132.473 395.878 132.473C395.878 132.473 406.489 123.882 410.351 123.53C412.206 123.362 414.046 123.997 415.468 125.298C416.89 126.598 417.776 128.457 417.932 130.465C418.088 132.473 417.501 134.465 416.3 136.005C415.098 137.544 413.382 138.503 411.527 138.672V138.682Z" fill="#587EEC"/>
<path d="M395.032 163.775C391.279 164.81 378.641 160.531 378.641 160.531C378.641 160.531 387.757 150.124 391.509 149.068C393.31 148.563 395.223 148.852 396.827 149.874C398.432 150.895 399.595 152.565 400.062 154.515C400.53 156.465 400.262 158.537 399.318 160.273C398.375 162.01 396.833 163.27 395.032 163.775Z" fill="#587EEC"/>
<path d="M395.366 100.047C396.934 103.881 407.899 111.949 407.899 111.949C407.899 111.949 409.763 97.7491 408.195 93.9145C407.414 92.1205 406.016 90.7284 404.299 90.0356C402.583 89.3429 400.684 89.4045 399.009 90.2073C397.333 91.0101 396.015 92.4904 395.334 94.3319C394.653 96.1733 394.665 98.23 395.366 100.062V100.047Z" fill="#587EEC"/>
<path d="M376.419 129.658C378.976 132.809 391.662 136.939 391.662 136.939C391.662 136.939 389.52 122.785 386.963 119.634C386.36 118.868 385.621 118.24 384.792 117.786C383.962 117.332 383.057 117.061 382.13 116.989C381.203 116.916 380.271 117.044 379.39 117.365C378.509 117.686 377.695 118.193 376.996 118.857C376.298 119.521 375.728 120.329 375.32 121.234C374.913 122.138 374.675 123.122 374.621 124.127C374.567 125.131 374.699 126.138 375.007 127.087C375.316 128.037 375.796 128.911 376.419 129.658Z" fill="#587EEC"/>
<path d="M361.654 161.183C363.681 164.754 375.539 171.145 375.539 171.145C375.539 171.145 375.64 156.805 373.627 153.229C372.626 151.578 371.069 150.414 369.288 149.985C367.508 149.555 365.642 149.894 364.088 150.928C362.533 151.963 361.412 153.612 360.963 155.527C360.513 157.441 360.769 159.47 361.678 161.183H361.654Z" fill="#587EEC"/>
<path d="M347.735 49.4831C348.528 46.3316 349.484 43.1646 350.153 39.9717C349.35 43.1646 348.39 46.342 347.735 49.4831Z" fill="url(#paint0_linear_111_37)"/>
<path d="M344.179 79.8389C344.112 79.7147 344.064 79.5905 344.012 79.4767C344.012 79.4249 343.964 79.3836 343.945 79.3318C343.84 79.385 343.734 79.4317 343.624 79.4715C343.414 79.5595 343.199 79.6423 342.979 79.7096C342.759 79.7768 342.668 79.8131 342.501 79.8545C342.362 79.9062 342.22 79.946 342.076 79.9735L342.114 80.0666C342.291 80.0252 342.463 79.989 342.64 79.9373L342.688 80.579C342.888 80.579 343.075 80.5479 343.256 80.5479C343.342 80.5428 343.428 80.5428 343.514 80.5479C343.887 80.5479 344.212 80.5479 344.47 80.5479C344.37 80.315 344.265 80.0718 344.179 79.8389ZM441.21 247.055C438.963 243.779 434.48 208.621 434.48 208.621C434.48 208.621 425.661 183.621 428.065 173.644C430.47 163.667 421.498 138.139 421.498 138.139C421.498 138.139 415.571 135.35 415.25 131.21C415.25 131.21 391.05 122.93 389.917 116.72C389 111.628 373.991 107.975 368.599 106.821C366.955 99.638 365.301 92.9366 364.082 89.2779C363.752 88.1395 363.442 87.1562 363.155 86.38C361.095 80.6876 354.728 80.1701 350.111 80.6255C349.911 79.6553 349.539 78.7363 349.016 77.9191C348.94 77.6381 348.788 77.3879 348.581 77.1998C348.482 77.1083 348.376 77.0253 348.266 76.9514C348.182 76.7836 348.072 76.633 347.941 76.5063C347.809 76.3784 347.665 76.2673 347.51 76.1751C347.399 76.1101 347.284 76.053 347.166 76.0044C346.889 75.8902 346.603 75.8052 346.311 75.7508C345.97 75.675 345.625 75.6266 345.278 75.6059C346.122 75.2063 346.874 74.611 347.482 73.862C347.895 73.3361 348.203 72.7228 348.385 72.0611C348.536 71.5108 348.604 70.9376 348.586 70.3637C348.462 70.6002 348.318 70.8237 348.156 71.0313C348.356 68.7388 347.238 66.4101 346.597 64.128C345.821 61.157 345.678 58.0342 346.177 54.9943C346.817 50.4094 348.404 45.7727 349.48 41.105C349.482 41.0792 349.482 41.0531 349.48 41.0273C350.044 38.7092 350.393 36.336 350.522 33.9429C350.708 29.1148 349.566 24.2969 347.73 19.8983C346.1 16.0016 343.696 12.167 340.016 10.5835C337.281 9.38812 334.218 9.57959 331.273 9.38294C324.667 8.9379 318.368 6.42291 312.087 4.13561C305.806 1.84832 299.344 -0.231988 292.733 0.166478C286.123 0.564944 279.321 4.01659 276.305 10.3506C275.349 12.3274 274.799 14.5268 273.657 16.3846C271.515 19.8879 267.682 21.6422 264.484 24.0589C261.287 26.4756 258.471 29.9065 257.315 33.9998C256.683 36.2052 256.594 38.5508 257.056 40.8048C257.16 41.3138 257.295 41.8151 257.458 42.3055C257.912 43.6729 258.619 44.9251 259.537 45.9849C260.23 46.7682 261.025 47.4361 261.898 47.9669C262.995 48.6249 264.169 49.1193 265.388 49.4365C265.345 49.5918 265.302 49.7574 265.254 49.9178C265.177 50.1817 265.11 50.4353 265.039 50.7199C264.881 51.3564 264.733 52.0033 264.609 52.6553C264.604 52.7017 264.604 52.7486 264.609 52.795C264.022 55.7385 263.727 58.7414 263.729 61.7527C263.728 63.1769 263.795 64.6002 263.93 66.0168C265.842 87.0165 281.854 103.581 301.638 104.658C302.317 104.694 303 104.715 303.693 104.715C304.009 104.715 304.32 104.715 304.649 104.715C304.96 105.16 305.266 105.615 305.558 106.06C305.849 106.505 306.117 106.96 306.37 107.406L305.677 106.629L304.984 105.941C304.796 106.22 304.587 106.482 304.358 106.722C303.906 106.55 303.445 106.409 302.976 106.298C300.993 105.822 297.972 105.646 293.995 106.945C290.339 108.13 285.869 110.567 280.64 115.199L255.159 131.759L241.374 140.835L236.407 153.979C236.407 153.979 232.674 169.597 228.521 187.492C228.358 187.544 228.2 187.595 228.043 187.658C227.706 187.616 227.368 187.595 227.029 187.595C224.619 187.589 222.301 188.595 220.561 190.4C218.821 192.206 217.796 194.671 217.699 197.278C209.44 208.145 208.971 219.012 210.912 224.001C211.087 224.468 211.309 224.914 211.571 225.331C212.843 227.318 215.218 232.441 217.627 237.9C217.565 238.351 217.527 238.728 217.508 239.013C217.504 239.106 217.504 239.199 217.508 239.293C217.508 239.293 218.942 262.74 214.162 269.462C213.115 270.927 213.273 272.852 214.162 274.984C217.365 282.653 230.026 292.894 230.026 292.894C230.026 292.894 245.212 292.806 253.672 291.807C253.648 292.728 253.629 293.644 253.61 294.54C253.419 303.585 253.419 311.166 253.419 311.166L253.104 320.652C253.104 320.652 250.236 340.643 248.802 346.154C247.898 349.611 248.94 381.617 249.848 405.147H399.467C401.226 391.227 398.746 348.933 398.746 348.933C398.746 348.933 396.389 337.998 396.303 328.466C396.298 328.456 396.296 328.444 396.296 328.432C396.296 328.421 396.298 328.409 396.303 328.399C396.303 327.566 396.303 326.753 396.332 325.956L397.417 325.915L399.367 325.842H399.544C399.544 325.842 399.592 325.646 399.702 325.325C399.96 324.526 400.311 323.766 400.748 323.064C401.58 321.734 402.88 320.429 404.835 320.342C405.915 320.295 407.588 319.348 409.476 317.951C409.489 317.954 409.502 317.954 409.515 317.951C414.596 314.23 421.311 307.363 422.941 306.235C425.183 304.682 435.919 294.333 435.919 294.333C435.919 294.333 437.52 292.138 439.226 289.494L439.288 289.401C441.411 286.089 443.667 282.13 443.112 280.883C442.156 278.647 443.753 273.302 443.753 273.302C448.738 263.423 443.456 250.331 441.21 247.055ZM348.782 87.8859C348.828 88.0404 348.857 88.2002 348.868 88.362C348.748 88.1912 348.629 88.0101 348.509 87.8445L348.395 87.6789L348.313 87.5547L348.495 87.2856C348.495 87.2856 348.495 87.2856 348.495 87.3218C348.621 87.4896 348.718 87.6807 348.782 87.8859ZM347.176 83.3009C346.655 83.4148 346.244 83.5183 345.976 83.5959C345.637 82.9439 345.312 82.2918 345.02 81.6295C345.786 82.1108 346.508 82.6705 347.176 83.3009ZM346.277 84.1186C346.276 84.1083 346.276 84.0978 346.277 84.0875L346.315 84.1186C346.511 84.2583 346.703 84.3928 346.879 84.5326C347.037 84.6568 347.181 84.7758 347.324 84.9C347.228 85.0811 347.123 85.2674 347.018 85.4175C346.851 85.1328 346.693 84.8586 346.54 84.574C346.444 84.4601 346.358 84.3049 346.277 84.1186ZM343.409 77.7328C344.333 77.6341 345.263 77.6341 346.186 77.7328C346.315 77.7328 346.43 77.7586 346.545 77.7793C346.804 77.8227 347.059 77.8938 347.305 77.9915C347.87 78.8471 348.217 79.8481 348.313 80.8946L348.055 80.936L347.802 80.9878C347.324 81.0757 346.846 81.1637 346.473 81.2465L345.995 81.3552C345.359 81.5053 344.991 81.6191 344.977 81.6243C344.915 81.4846 344.853 81.3552 344.786 81.2206C344.681 80.9981 344.571 80.7704 344.475 80.5479C344.38 80.3254 344.255 80.0718 344.155 79.8389C344.088 79.7147 344.04 79.5905 343.988 79.4767C343.988 79.4249 343.94 79.3836 343.921 79.3318C343.893 79.2769 343.869 79.2198 343.849 79.161C343.557 78.5193 343.29 77.8777 343.032 77.2463C343.003 77.1842 342.979 77.117 342.955 77.0549L343.318 77.029V77.1635L343.409 77.7328ZM229.367 398.751C229.328 391.046 228.812 382.709 227.378 374.885C226.766 371.557 226.136 368.23 225.495 364.959C225.333 364.142 225.175 363.334 225.017 362.527L223.545 362.739H223.411C219.396 342.242 215.199 324.181 215.199 324.181C215.199 324.181 206.863 289.722 207.829 286.974C207.953 286.617 207.795 285.654 207.442 284.242C205.424 276.407 197.002 254.817 194.058 247.438C194.058 247.407 194.034 247.371 194.024 247.345C193.546 246.108 193.202 245.275 193.097 245.031L193.79 234.019L193.829 233.357L193.919 231.949L193.881 231.913L193.919 231.261C193.919 231.261 186.644 224.803 174.322 220.14C173.844 219.954 173.337 219.773 172.835 219.597C173.452 215.141 174.269 210.111 175.335 205.211C175.436 204.719 175.546 204.243 175.66 203.762C175.761 203.281 175.875 202.815 175.99 202.344C176.172 201.578 176.368 200.822 176.568 200.077C177.233 199.85 177.888 199.596 178.533 199.327L178.782 199.223C186.731 195.875 193.29 189.521 197.245 181.338C201.199 173.156 202.282 163.699 200.291 154.719C199.156 149.627 197.06 144.843 194.134 140.67C193.915 140.349 193.68 140.028 193.446 139.712C193.212 139.397 192.93 139.045 192.667 138.724C194.048 135.324 195.678 132.09 195.812 128.783C195.836 128.364 195.836 127.944 195.812 127.525V127.474C195.635 125.347 194.765 123.194 192.739 120.933C189.78 117.616 185.569 115.934 181.358 115.126C177.147 114.319 172.855 114.298 168.62 113.755C161.598 112.844 154.758 110.5 147.736 109.781C139.088 108.914 130.38 110.52 122.484 114.438C117.26 117.026 111.969 121.548 111.653 127.753C111.395 132.881 114.693 137.798 113.862 142.864C113.035 147.842 108.35 151.759 108.761 156.795C108.919 158.761 109.851 160.521 111.018 162.089C111.419 162.606 111.844 163.123 112.284 163.641C113.986 165.592 115.86 167.465 116.811 169.923C116.849 170.027 116.887 170.13 116.921 170.234C117.728 172.661 117.365 175.729 115.367 177.122C115.378 177.131 115.387 177.143 115.391 177.158C115.42 177.199 115.448 177.23 115.472 177.272C115.475 177.263 115.475 177.254 115.472 177.246C116.181 178.155 117.136 178.8 118.202 179.088L118.608 179.223C118.278 179.611 117.967 180.014 117.652 180.439L117.446 180.734C116.92 181.5 116.441 182.304 116.012 183.14C115.769 183.606 115.535 184.071 115.339 184.537C114.683 185.957 114.209 187.466 113.928 189.024C113.417 192.45 114.139 196.02 113.364 199.374C112.408 203.513 109.383 206.691 107.676 210.536C104.445 217.781 106.276 226.283 106.926 234.283C107.81 245.15 106.376 256.064 104.947 266.859C104.189 272.6 103.43 278.346 102.672 284.097C100.76 298.531 98.848 312.966 96.9361 327.4C96.2382 332.689 95.4113 338.267 92.1562 342.35H92.1897C92.1897 342.35 92.1897 342.381 92.1562 342.392C93.1334 342.854 94.1726 343.144 95.2345 343.251C99.4838 343.711 103.986 341.486 107.81 339.054C110.839 337.159 113.706 334.979 116.381 332.539C115.989 334.091 115.568 335.783 115.119 337.605C115.12 337.622 115.12 337.639 115.119 337.657C109.722 359.909 101.042 400.702 101.042 400.702C101.042 400.702 100.253 402.477 99.2304 405.122H234.022C232.445 403.052 230.978 401.07 229.83 399.471L229.367 398.751ZM129.563 192.998C129.597 192.936 129.621 192.879 129.654 192.822C129.654 192.988 129.654 193.148 129.654 193.303C129.654 193.459 129.654 193.598 129.654 193.743C129.654 193.888 129.654 193.873 129.654 193.945C129.654 194.018 129.654 193.945 129.654 193.945C129.654 194.157 129.611 194.369 129.578 194.582C129.578 194.582 129.578 194.607 129.578 194.628L130.056 194.82L130.61 195.068C133.886 196.469 137.203 197.737 140.562 198.872C140.906 198.991 141.255 199.104 141.604 199.213L141.676 199.855C141.762 200.512 141.843 201.18 141.919 201.847C141.919 201.847 141.919 201.878 141.919 201.899C142.134 203.746 142.345 205.589 142.531 207.389C142.531 207.389 133.755 203.767 133.865 209.268C133.86 209.366 133.86 209.465 133.865 209.563C133.856 209.694 133.856 209.825 133.865 209.956C133.947 214.241 135.184 216.782 135.433 218.086C135.418 218.14 135.392 218.189 135.357 218.231C135.145 218.73 135.071 219.286 135.146 219.83C135.138 220.756 135.205 221.68 135.347 222.593C135.089 222.764 134.836 222.935 134.582 223.111C134.391 223.24 134.209 223.385 134.023 223.53C132.85 219.126 131.316 214.845 129.439 210.738C128.125 207.809 126.648 204.755 126.662 201.542C126.662 201.335 126.662 201.123 126.686 200.91C126.739 199.979 126.903 199.059 127.173 198.173C127.283 197.837 127.403 197.505 127.537 197.179C127.849 196.405 128.198 195.648 128.584 194.913C128.832 194.426 129.095 193.945 129.348 193.459C129.43 193.314 129.506 193.164 129.583 193.019L129.563 192.998ZM344.179 79.8389C344.112 79.7147 344.064 79.5905 344.012 79.4767C344.012 79.4249 343.964 79.3836 343.945 79.3318C343.84 79.385 343.734 79.4317 343.624 79.4715C343.414 79.5595 343.199 79.6423 342.979 79.7096C342.759 79.7768 342.668 79.8131 342.501 79.8545L342.076 79.9735L342.114 80.0666C342.291 80.0252 342.463 79.989 342.64 79.9373L342.688 80.579C342.888 80.579 343.075 80.5479 343.256 80.5479H343.514C343.887 80.5479 344.212 80.5479 344.47 80.5479C344.37 80.315 344.265 80.0718 344.179 79.8389Z" fill="url(#paint1_linear_111_37)"/>
<path d="M239.739 155.848L236.871 157.219C236.871 157.219 218.177 235.846 218.177 242.201C218.177 248.556 257.816 283.916 257.816 283.916L264.001 238.718C264.001 238.718 255.12 135.07 239.739 155.848Z" fill="#E8F5FF"/>
<path d="M326.689 130.837L310.127 121.481C309.199 117.2 307.553 113.139 305.27 109.501C302.847 105.713 299.625 101.993 295.61 100.052C285.463 95.1255 338.533 69.2666 338.533 69.2666C339.369 72.373 340.354 75.4303 341.483 78.4262C344.217 85.7331 348.753 95.1824 354.599 97.8734C364.536 102.453 326.689 130.837 326.689 130.837Z" fill="#FFB0B1"/>
<path opacity="0.1" d="M341.483 78.4262C339.215 87.0604 334.499 94.7053 328.002 100.281C321.504 105.857 313.553 109.082 305.27 109.501C302.847 105.713 299.625 101.993 295.61 100.052C285.463 95.1255 338.534 69.2666 338.534 69.2666C339.369 72.373 340.354 75.4303 341.483 78.4262Z" fill="black"/>
<path d="M342.974 65.37C342.976 73.838 340.658 82.1164 336.314 89.1583C331.97 96.2001 325.794 101.689 318.569 104.931C311.343 108.173 303.391 109.022 295.72 107.37C288.048 105.719 281.001 101.642 275.47 95.6546C269.939 89.6672 266.173 82.0384 264.647 73.7331C263.121 65.4278 263.904 56.8191 266.897 48.9958C269.891 41.1724 274.96 34.4859 281.464 29.7818C287.967 25.0778 295.614 22.5675 303.435 22.5685C308.634 22.5425 313.786 23.6318 318.593 25.7735C323.401 27.9152 327.769 31.0668 331.445 35.0464C335.122 39.026 338.033 43.7547 340.012 48.9594C341.991 54.1641 342.998 59.7417 342.974 65.37Z" fill="#FFB0B1"/>
<path d="M348.681 125.342L337.898 152.582L328.386 170.663H297.938L289.057 145.943L292.656 120.306H315.91L330.924 119.39L335.995 117.559L339.265 119.566L348.681 125.342Z" fill="#575A89"/>
<path opacity="0.1" d="M344.967 89.0295C344.967 89.0295 351.693 90.582 345.67 95.9276C339.647 101.273 318.869 118.273 318.869 118.273C318.869 118.273 326.168 125.311 324.658 133.554L348.839 118.961L353.141 95.6119C353.141 95.6119 353.624 88.5948 344.967 89.0295Z" fill="black"/>
<path opacity="0.1" d="M323.625 118.273L308.244 121.021C308.244 121.021 311.417 133.725 309.83 137.332C309.783 137.444 309.743 137.56 309.711 137.679L303.435 156.044L308.138 170.467L324.419 146.429L318.869 137.332C318.869 137.332 324.734 128.918 328.223 125.999C331.713 123.08 323.625 118.273 323.625 118.273Z" fill="black"/>
<path d="M323.625 117.564L308.244 120.306C308.244 120.306 311.417 133.011 309.83 136.618C309.783 136.73 309.743 136.846 309.711 136.964L303.435 155.33L308.138 169.752L324.419 145.7L318.869 136.602C318.869 136.602 324.734 128.188 328.223 125.269C331.713 122.351 323.625 117.564 323.625 117.564Z" fill="#DCE6F2"/>
<path d="M345.613 87.6582C345.613 87.6582 352.338 89.2106 346.311 94.5563C340.283 99.9019 318.869 118.273 318.869 118.273C318.869 118.273 326.799 123.939 325.294 132.178L349.475 117.59L353.777 94.2406C353.777 94.2406 354.255 87.2235 345.613 87.6582Z" fill="#575A89"/>
<path opacity="0.1" d="M306.327 111.121C306.327 111.121 307.794 114.091 314.271 119.447C314.271 119.447 303.488 125.657 307.613 134.387L291.117 129.73L288.579 121.145L306.327 111.121Z" fill="black"/>
<path d="M305.691 110.438C305.691 110.438 307.159 113.408 313.635 118.764C313.635 118.764 302.852 124.943 306.977 133.699L290.486 129.042L287.948 120.462L305.691 110.438Z" fill="#575A89"/>
<path opacity="0.1" d="M348.681 125.342L337.898 152.582L328.405 170.663H297.938L289.057 145.943L292.652 120.307H299.119C299.014 126.289 301.031 133.316 300.902 135.93C300.682 140.225 306.819 163.398 306.819 163.398C306.819 163.398 319.663 140.908 324.734 138.905C327.922 137.648 334.676 127.184 339.26 119.567L348.681 125.342Z" fill="black"/>
<path d="M391.16 268.691L390.065 270.181C390.065 270.181 397.995 313.273 395.801 323.058C395.428 324.822 395.215 326.621 395.165 328.43V328.507C394.778 338.464 397.555 351.386 397.555 351.386C397.555 351.386 399.773 389.473 398.511 405.137H250.039C249.169 381.974 248.233 351.965 249.083 348.638C250.517 343.147 253.385 323.229 253.385 323.229L253.701 313.79C253.701 313.79 253.701 304.667 253.959 294.503C254.069 289.934 254.231 285.137 254.465 280.883C254.767 275.532 255.187 271.025 255.766 268.81C256.122 267.131 256.327 265.419 256.377 263.697C256.377 263.537 256.377 263.371 256.406 263.206C256.406 262.688 256.454 262.129 256.473 261.555C256.473 261.394 256.473 261.234 256.473 261.037C256.564 257.705 256.53 253.751 256.43 249.653C256.43 249.43 256.43 249.202 256.43 248.975C256.349 245.901 256.229 242.765 256.095 239.784C255.68 230.469 255.139 222.593 255.139 222.593L236.904 157.183L241.818 144.08L255.455 135.034L280.669 118.552C292.967 107.607 301.064 108.922 304.152 110.122C304.452 110.233 304.746 110.363 305.032 110.511C305.127 110.562 305.204 110.604 305.275 110.65C305.374 110.701 305.468 110.759 305.557 110.826C304.712 111.267 303.977 111.922 303.416 112.736C302.784 113.662 302.333 114.719 302.092 115.841C301.93 116.536 301.817 117.244 301.753 117.957C301.69 118.708 301.667 119.484 301.667 120.265C301.701 121.979 301.836 123.688 302.073 125.383C302.073 125.414 302.073 125.456 302.073 125.497C302.231 126.708 302.426 127.893 302.618 129.006C302.616 129.024 302.616 129.044 302.618 129.062C302.838 130.361 303.057 131.562 303.206 132.597C303.234 132.783 303.258 132.954 303.282 133.114C303.387 133.798 303.437 134.491 303.43 135.184C303.484 136.859 303.692 138.523 304.052 140.152C304.176 140.835 304.319 141.565 304.477 142.326C304.692 143.361 304.926 144.489 305.18 145.638C305.318 146.269 305.466 146.921 305.619 147.568C305.677 147.827 305.739 148.085 305.796 148.349L305.892 148.758C306.91 153.141 308.014 157.504 308.693 160.143C309.094 161.695 309.348 162.653 309.348 162.653C309.348 162.653 316.546 150.052 322.292 142.879C322.378 142.776 322.454 142.678 322.535 142.584C323.104 141.875 323.663 141.229 324.199 140.659C325.37 139.397 326.421 138.496 327.267 138.165C327.448 138.093 327.622 138.005 327.788 137.901C330.14 136.457 333.935 131.215 337.487 125.725C337.836 125.207 338.175 124.643 338.519 124.11C339.308 122.878 340.073 121.642 340.794 120.457C341.349 119.551 341.879 118.671 342.381 117.833C344.771 113.807 346.454 110.805 346.454 110.805L349.771 110.645L350.349 110.614H350.736L365.798 109.858C365.798 109.858 366.448 109.977 367.519 110.21C367.576 110.21 367.633 110.21 367.695 110.252C373.039 111.401 387.885 115.039 388.794 120.084C389.903 126.263 413.85 134.506 413.85 134.506C414.165 138.646 420.03 141.373 420.03 141.373C420.03 141.373 428.911 166.782 426.535 176.739C424.188 186.571 432.644 210.893 432.869 211.576L431.248 213.791L391.16 268.691Z" fill="#E8F5FF"/>
<path opacity="0.1" d="M344.962 87.2236C344.962 87.2236 359.622 82.7214 362.954 91.9896C366.285 101.258 373.737 138.688 373.737 138.688C373.737 138.688 354.388 142.636 349.317 138.688C346.342 136.344 342.66 135.302 339.007 135.769L328.066 143.837L324.834 142.802C324.834 142.802 342.338 114.63 346.143 105.056C349.948 95.4827 351.234 91.203 344.962 87.2236Z" fill="black"/>
<path d="M344.327 85.1536C344.327 85.1536 358.996 80.6514 362.342 89.9196C365.688 99.1878 373.125 136.618 373.125 136.618C373.125 136.618 353.781 140.566 348.705 136.618C345.732 134.274 342.052 133.232 338.4 133.699L327.449 141.767L324.218 140.732C324.218 140.732 341.722 112.56 345.527 102.986C349.331 93.4127 350.598 89.1434 344.327 85.1536Z" fill="#E8F5FF"/>
<path opacity="0.1" d="M245.924 234.475C245.924 234.475 256.865 237.393 258.93 244.09C260.995 250.786 250.843 250.957 250.843 250.957C250.843 250.957 244.657 239.111 245.924 234.475Z" fill="black"/>
<path opacity="0.1" d="M286.677 283.916C286.677 283.916 259.881 343.318 266.066 348.985C272.251 354.651 286.677 283.916 286.677 283.916Z" fill="black"/>
<path opacity="0.1" d="M323.625 240.141C323.625 240.141 345.034 297.841 340.751 306.752C336.469 315.663 349.948 306.752 349.948 306.752L323.625 240.141Z" fill="black"/>
<path d="M353.437 297.137C353.437 297.137 281.128 300.915 302.221 325.294C323.315 349.673 366.601 326.329 366.601 326.329L353.437 297.137Z" fill="#FFB0B1"/>
<path opacity="0.1" d="M342.974 65.3699C342.981 70.9847 341.962 76.5456 339.977 81.7328C339.313 81.8156 338.649 81.8674 338.008 81.8984C337.052 79.6267 337.563 77.003 337.583 74.5035C337.602 72.0041 336.751 69.0647 334.528 68.392C330.097 67.0414 327.038 76.0094 322.669 74.3897C319.324 73.1581 320.198 67.6623 318.272 64.4901C316.747 61.9803 313.693 61.2714 311.317 59.6982C306.265 56.3397 306.418 50.9682 304.071 45.8864C301.614 40.5615 296.423 42.1347 291.916 45.2758C288.493 47.6666 285.54 50.8699 281.878 52.7742C278.709 54.4302 275.148 55.0305 271.635 55.1184C269.472 55.2092 267.308 54.9617 265.211 54.3836C267.678 44.3412 273.435 35.6131 281.408 29.8271C289.381 24.0411 299.025 21.592 308.543 22.9368C318.061 24.2815 326.802 29.3281 333.136 37.1356C339.47 44.943 342.965 54.9783 342.969 65.3699H342.974Z" fill="black"/>
<path d="M291.93 43.9046C288.503 46.2954 285.554 49.4935 281.893 51.4082C278.724 53.059 275.163 53.6593 271.649 53.7472C267.347 53.8507 262.716 53.0331 259.776 49.6694C257.076 46.5645 256.43 41.7881 257.573 37.7155C258.715 33.6428 261.454 30.2636 264.671 27.8159C267.888 25.3682 271.621 23.676 273.752 20.1726C274.881 18.32 275.425 16.1362 276.362 14.1646C279.359 7.85639 286.099 4.44097 292.614 4.01663C299.129 3.59229 305.586 5.69329 311.791 7.97024C317.995 10.2472 324.247 12.7518 330.795 13.2227C333.711 13.4194 336.741 13.2227 339.447 14.4181C343.084 16.0172 345.469 19.8414 347.095 23.7329C348.916 28.1212 350.049 32.9132 349.857 37.7051C349.456 47.9358 343.213 57.9751 345.957 67.7763C346.684 70.3897 348.046 73.0703 347.319 75.6836C346.258 79.4975 341.712 80.3668 338.037 80.548C337.081 78.2762 337.592 75.6473 337.611 73.1531C337.63 70.6588 336.78 67.7142 334.562 67.0415C330.126 65.7012 327.067 74.6538 322.708 73.0392C319.386 71.8024 320.246 66.3119 318.315 63.1397C316.79 60.6247 313.731 59.9209 311.36 58.3477C306.308 54.9892 306.461 49.6177 304.114 44.5359C301.638 39.1851 296.442 40.7583 291.93 43.9046Z" fill="#575A89"/>
<path d="M221.814 240.824L218.167 242.201C218.167 242.201 219.601 265.55 214.821 272.246C210.042 278.942 230.518 295.59 230.518 295.59C230.518 295.59 258.586 295.419 259.379 293.003C260.173 290.586 257.945 249.741 257.945 249.741C257.945 249.741 242.879 243.386 244.146 233.259C244.146 233.259 239.548 257.12 232.732 256.09C225.915 255.06 218.177 248.897 221.814 240.824Z" fill="#E8F5FF"/>
<path opacity="0.1" d="M233.979 263.314C239.293 263.314 243.601 259.049 243.601 253.787C243.601 248.526 239.293 244.26 233.979 244.26C228.665 244.26 224.357 248.526 224.357 253.787C224.357 259.049 228.665 263.314 233.979 263.314Z" fill="black"/>
<path d="M244.5 241.513C244.5 241.513 242.588 178.338 225.944 192.413C209.301 206.489 209.138 223.323 212.307 228.296C215.476 233.269 225.638 258.165 225.638 258.165C227.228 259.163 229.013 259.738 230.848 259.845C232.682 259.951 234.514 259.585 236.193 258.777C237.872 257.97 239.35 256.743 240.506 255.197C241.663 253.651 242.465 251.831 242.846 249.886L244.5 241.513Z" fill="#FFB0B1"/>
<path opacity="0.1" d="M348.323 81.4897C348.245 81.2121 348.096 80.9644 347.892 80.7756C347.07 79.9631 345.302 79.6785 342.635 79.9269L342.745 81.293C346.301 80.9619 347.003 81.7277 347.094 81.8571V81.9865L347.204 82.1573C347.648 82.8024 347.962 83.5407 348.126 84.3249C348.291 85.1091 348.302 85.9219 348.16 86.7111C347.381 90.9287 342.596 94.2872 342.549 94.3234L342.434 94.3959L342.362 94.5149C340.297 97.832 328.62 107.193 325.566 109.615L325.298 109.284C323.931 110.567 311.915 121.957 311.264 126.32C310.844 129.057 307.995 130.118 306.963 130.413C305.873 129.518 302.336 126.47 300.495 123.054C298.77 119.841 305.715 113.569 306.327 111.121L305.371 110.06C305.271 110.454 296.351 119.478 298.832 124.089C300.82 127.789 304.453 130.956 305.725 132.002C305.318 135.997 302.79 159.454 298.904 165.012C294.076 171.921 290.018 206.737 290.467 218.893C290.864 229.693 288.259 250.092 279.56 258.854C278.054 260.437 276.237 261.631 274.245 262.348C272.252 263.065 270.136 263.286 268.055 262.993H267.949H267.844C267.72 262.993 255.101 264.391 244.5 254.714C235.824 246.812 230.91 233.916 229.888 216.373H229.677L229.591 211.265C231.943 210.868 234.062 209.499 235.501 207.446C236.941 205.393 237.589 202.816 237.31 200.256C237.031 197.696 235.847 195.353 234.006 193.719C232.165 192.085 229.81 191.287 227.437 191.493C225.064 191.699 222.857 192.893 221.28 194.823C219.703 196.754 218.878 199.271 218.979 201.847C219.081 204.422 220.1 206.854 221.823 208.633C223.546 210.411 225.839 211.398 228.219 211.384H228.324L228.411 216.461L227.99 216.492C229.041 234.604 234.204 248.002 243.285 256.276C250.188 262.469 259.005 265.593 267.954 265.017C268.589 265.092 269.227 265.13 269.866 265.131C273.968 265.154 277.915 263.435 280.86 260.344C290.023 251.107 292.809 229.957 292.374 218.79C291.896 205.909 296.155 172.345 300.429 166.234C304.616 160.236 307.154 136.866 307.598 132.338C309.113 131.878 312.541 130.423 313.124 126.646C313.544 123.913 321.57 115.494 326.507 110.831L326.359 110.645C329.017 108.544 337.281 101.92 341.377 97.6664C342.649 96.3468 343.911 95.0272 345.23 93.7697C346.817 92.2483 348.834 89.8316 349.365 86.9751C349.545 86.0321 349.546 85.0591 349.367 84.1158C349.188 83.1725 348.833 82.2788 348.323 81.4897Z" fill="black"/>
<path d="M305.562 131.676C305.362 131.526 300.601 127.836 298.216 123.396C295.74 118.785 304.659 109.765 304.754 109.372L305.71 110.433C305.103 112.875 298.158 119.152 299.884 122.361C302.059 126.413 306.638 129.958 306.686 129.994L305.562 131.676Z" fill="#353146"/>
<path d="M324.945 110.619L324.199 109.507C324.352 109.388 339.365 97.6303 341.732 93.8267L341.808 93.7129L341.918 93.6353C341.966 93.599 346.75 90.2457 347.529 86.023C347.673 85.2346 347.662 84.4223 347.498 83.6387C347.333 82.8552 347.018 82.1178 346.574 81.4743L346.464 81.2983V81.1741C346.368 81.0396 345.665 80.2789 342.109 80.6101L341.999 79.2387C344.671 78.9903 346.435 79.275 347.257 80.0874C347.462 80.2781 347.612 80.5274 347.692 80.8067C348.209 81.5935 348.571 82.4866 348.757 83.4309C348.943 84.3752 348.948 85.3507 348.772 86.2973C348.242 89.159 346.229 91.5756 344.638 93.0919C343.323 94.3494 342.057 95.6793 340.79 96.9886C335.986 101.972 325.47 110.21 324.945 110.619Z" fill="#E8F5FF"/>
<path d="M228.974 209.464L227.708 209.489L227.849 217.824L229.116 217.799L228.974 209.464Z" fill="#E8F5FF"/>
<path d="M227.603 210.727C232.711 210.727 236.852 206.244 236.852 200.714C236.852 195.184 232.711 190.7 227.603 190.7C222.495 190.7 218.354 195.184 218.354 200.714C218.354 206.244 222.495 210.727 227.603 210.727Z" fill="#587EEC"/>
<path d="M227.603 209.03C231.845 209.03 235.284 205.307 235.284 200.714C235.284 196.121 231.845 192.398 227.603 192.398C223.361 192.398 219.922 196.121 219.922 200.714C219.922 205.307 223.361 209.03 227.603 209.03Z" fill="#E8F5FF"/>
<path d="M269.264 264.463C268.625 264.464 267.987 264.428 267.352 264.354C258.404 264.925 249.589 261.802 242.683 255.614C233.602 247.334 228.449 233.952 227.388 215.824L229.3 215.695C230.323 233.238 235.236 246.139 243.916 254.036C254.518 263.687 267.132 262.316 267.256 262.316H267.362H267.467C269.549 262.606 271.666 262.385 273.658 261.668C275.651 260.952 277.469 259.758 278.977 258.176C287.671 249.415 290.276 229.015 289.88 218.215C289.402 206.049 293.46 171.232 298.292 164.329C302.522 158.28 305.146 131.013 305.175 130.739L305.247 129.963L305.954 129.828C305.997 129.828 310.127 128.98 310.643 125.637C311.312 121.279 323.31 109.889 324.672 108.601L325.92 110.153C320.963 114.811 312.938 123.235 312.536 125.973C311.953 129.761 308.526 131.21 307.015 131.665C306.537 136.199 304.018 159.563 299.846 165.561C295.572 171.672 291.313 205.237 291.791 218.117C292.203 229.284 289.445 250.439 280.282 259.671C277.331 262.77 273.375 264.491 269.264 264.463Z" fill="#353146"/>
<g opacity="0.1">
<path opacity="0.1" d="M347.046 53.1365C347.83 50.0005 348.777 46.8439 349.436 43.6665C348.648 46.8594 347.696 50.0005 347.046 53.1365Z" fill="black"/>
<path opacity="0.1" d="M339.05 77.7793C338.094 75.5076 338.605 72.8787 338.624 70.3844C338.644 67.8901 337.793 64.9715 335.575 64.2729C331.139 62.9326 328.08 71.8903 323.721 70.2706C320.375 69.0338 321.259 63.5432 319.328 60.371C317.803 57.856 314.749 57.1523 312.378 55.5791C307.321 52.2206 307.474 46.8491 305.132 41.7673C302.67 36.4372 297.484 38.0104 292.972 41.1567C289.545 43.5475 286.596 46.7507 282.934 48.6603C279.765 50.3111 276.204 50.9114 272.691 50.9993C268.413 51.108 263.758 50.2852 260.818 46.9215C258.552 44.3341 257.735 40.5409 258.203 36.9857C258.122 37.229 258.05 37.4722 257.979 37.7154C256.832 41.788 257.501 46.5748 260.182 49.6694C263.122 53.0331 267.777 53.8507 272.055 53.7472C275.573 53.6592 279.13 53.0589 282.303 51.4081C285.974 49.4934 288.924 46.2954 292.341 43.9046C296.853 40.7582 302.044 39.1851 304.501 44.5152C306.843 49.5969 306.695 54.9685 311.747 58.327C314.137 59.8794 317.173 60.6039 318.702 63.1189C320.614 66.3014 319.768 71.7816 323.095 73.0184C327.449 74.633 330.508 65.6805 334.944 67.0208C337.162 67.6935 338.017 70.6432 337.994 73.1323C337.97 75.6214 337.473 78.2554 338.419 80.5272C342.095 80.3461 346.64 79.4922 347.706 75.6628C347.853 75.1132 347.921 74.5425 347.907 73.9706C346.354 76.8737 342.358 77.6189 339.05 77.7793Z" fill="black"/>
</g>
<path opacity="0.1" d="M425.436 205.288L430.986 211.643C430.986 211.643 435.426 246.662 437.644 249.937C439.862 253.213 445.101 266.243 440.182 276.029C440.182 276.029 438.595 281.354 439.547 283.584C440.498 285.815 432.415 296.977 432.415 296.977C432.415 296.977 421.789 307.275 419.567 308.822C417.344 310.37 405.614 322.727 401.652 322.898C397.689 323.069 396.394 328.394 396.394 328.394L374.034 329.253C374.034 329.253 361.683 328.554 358.996 330.443C358.996 330.443 360.43 310.013 346.631 296.62L364.23 289.753C364.23 289.753 370.894 286.648 372.954 283.403C374.25 281.414 376.088 279.914 378.211 279.113C378.211 279.113 383.125 275.336 383.283 273.276C383.441 271.216 389.291 268.691 389.291 268.691L385.979 238.082L387.723 187.264C387.723 187.264 393.273 144.685 405.007 147.092C416.742 149.498 425.436 205.288 425.436 205.288Z" fill="black"/>
<path d="M427.348 205.288L432.897 211.643C432.897 211.643 437.338 246.662 439.556 249.937C441.774 253.213 447.012 266.243 442.094 276.029C442.094 276.029 440.512 281.354 441.463 283.584C442.414 285.815 434.327 296.977 434.327 296.977C434.327 296.977 423.701 307.275 421.478 308.822C419.256 310.37 407.526 322.727 403.563 322.898C399.601 323.069 398.306 328.394 398.306 328.394L375.946 329.253C375.946 329.253 363.585 328.554 360.908 330.443C360.908 330.443 362.342 310.013 348.543 296.62L366.142 289.753C366.142 289.753 372.805 286.648 374.865 283.403C376.161 281.414 378 279.914 380.123 279.113C380.123 279.113 385.037 275.336 385.195 273.276C385.352 271.216 391.203 268.691 391.203 268.691L387.89 238.082L389.635 187.264C389.635 187.264 395.184 144.685 406.919 147.092C418.653 149.498 427.348 205.288 427.348 205.288Z" fill="#E8F5FF"/>
<path opacity="0.1" d="M406.718 256.623C406.718 256.623 423.051 251.966 427.334 257.658C431.617 263.351 406.718 256.623 406.718 256.623Z" fill="black"/>
<path opacity="0.1" d="M402.914 264.432C408.463 268.639 425.589 268.81 425.589 268.81L402.914 264.432Z" fill="black"/>
<path opacity="0.1" d="M411.316 285.463C411.794 285.634 423.089 298.685 427.831 294.736C432.572 290.788 411.316 285.463 411.316 285.463Z" fill="black"/>
<path opacity="0.1" d="M259.202 175.931C259.202 175.931 262.52 200.657 260.885 210.727C259.25 220.798 265.215 233.274 265.215 233.274L259.202 175.931Z" fill="black"/>
<path d="M185.765 185.986C181.941 189.231 179.149 196.91 177.128 205.351C173.6 220.073 172.448 237.145 172.448 237.145C172.448 237.145 142 229.59 144.218 226.159C145.614 224.001 143.74 207.741 142.177 195.953C141.245 188.988 140.413 183.58 140.413 183.58C140.413 183.58 196.233 177.054 185.765 185.986Z" fill="#FFB0B1"/>
<path opacity="0.1" d="M185.765 185.298C181.941 188.548 179.149 196.222 177.128 204.662C171.061 206.657 164.609 206.836 158.456 205.183C152.303 203.529 146.678 200.104 142.177 195.27C141.245 188.299 140.413 182.892 140.413 182.892C140.413 182.892 196.233 176.371 185.765 185.298Z" fill="black"/>
<path d="M202.131 166.803C202.134 175.804 199.196 184.515 193.837 191.396C188.477 198.277 181.042 202.884 172.848 204.401C164.653 205.917 156.227 204.246 149.06 199.684C141.894 195.121 136.449 187.961 133.691 179.47C130.932 170.979 131.036 161.706 133.986 153.29C136.935 144.875 142.539 137.861 149.806 133.489C157.074 129.117 165.535 127.669 173.693 129.402C181.851 131.135 189.18 135.936 194.383 142.957C199.396 149.72 202.129 158.131 202.131 166.803Z" fill="#FFB0B1"/>
<path opacity="0.1" d="M229.892 405.137H219.854L219.008 385.943L218.124 366.077C218.124 366.077 220.404 365.71 224.037 365.161L225.504 364.949H225.624C226.417 368.98 227.201 373.12 227.956 377.255C229.213 384.595 229.867 392.042 229.911 399.507C229.911 400.024 229.911 400.542 229.911 401.028C229.94 402.41 229.911 403.792 229.892 405.137Z" fill="black"/>
<path d="M227.966 405.137H102.084C102.629 403.797 102.992 402.984 102.992 402.984C102.992 402.984 113.063 355.282 118.182 335.1C118.184 335.083 118.184 335.066 118.182 335.049C118.822 332.307 119.594 329.604 120.496 326.95C120.554 326.769 120.629 326.596 120.721 326.432C123.254 321.972 126.428 317.164 121.987 310.297C117.547 303.43 119.119 273.214 119.119 273.214C119.119 273.214 124.511 247.459 130.218 233.724C131.084 231.597 132.313 229.666 133.841 228.032C134.338 227.506 134.868 227.018 135.428 226.573C135.854 226.226 136.297 225.907 136.757 225.615L136.848 225.553C139.245 224.082 141.907 223.187 144.653 222.93C146.604 222.709 148.572 222.768 150.509 223.106C159.762 224.575 167.171 227.033 173.06 229.833C189.02 237.424 193.852 247.598 193.948 247.81L193.986 247.898C194.627 249.518 203.995 273.198 207.37 284.247C208.244 287.124 208.722 289.147 208.531 289.701C207.575 292.444 215.825 326.779 215.825 326.779C215.825 326.779 219.649 343.339 223.473 362.75C223.64 363.557 223.798 364.364 223.951 365.182C224.634 368.706 225.313 372.297 225.968 375.884C227.237 383.274 227.891 390.773 227.923 398.291C227.993 400.633 228.007 402.915 227.966 405.137Z" fill="#EB5569"/>
<path opacity="0.1" d="M143.903 211.12C143.903 211.12 135.218 207.498 135.323 212.994C135.428 218.49 137.441 221.118 136.805 221.92C136.169 222.723 137.12 227.53 137.12 227.53C137.12 227.53 148.855 227.53 154.247 230.159C159.638 232.788 179.513 238.056 182.051 239.66C184.589 241.264 194.001 248.457 194.001 248.457L194.847 234.837C194.847 234.837 185.12 226.138 169.16 221.677C153.2 217.216 143.903 211.12 143.903 211.12Z" fill="black"/>
<path d="M143.903 210.432C143.903 210.432 135.218 206.81 135.323 212.306C135.428 217.801 137.441 220.43 136.805 221.232C136.169 222.034 137.12 226.842 137.12 226.842C137.12 226.842 148.855 226.842 154.247 229.476C159.638 232.11 179.513 237.373 182.051 238.972C184.589 240.571 194 247.769 194 247.769L194.856 234.19C194.856 234.19 185.129 225.491 169.169 221.03C153.209 216.57 143.903 210.432 143.903 210.432Z" fill="#EB5569"/>
<path opacity="0.1" d="M170.12 243.21C170.12 243.21 186.716 262.662 185.87 268.049C185.024 273.436 170.12 243.21 170.12 243.21Z" fill="black"/>
<path opacity="0.1" d="M143.162 313.48C143.162 313.48 130.997 325.615 127.412 326.303C123.827 326.991 130.161 329.279 134.281 327.452C138.401 325.625 147.187 320.818 147.187 320.818L143.162 313.48Z" fill="black"/>
<path d="M232.908 405.137H204.54C200.573 401.411 196.82 397.96 194.43 395.885C190.607 392.562 187.849 387.672 186.09 383.739C185.693 382.844 185.349 382.005 185.057 381.245C184.535 379.934 184.076 378.596 183.681 377.234L204.688 363.728C205.849 364.797 206.94 365.952 207.953 367.185L208.206 367.5C209.372 368.991 210.4 370.683 210.491 372.07C210.596 373.684 214.745 379.93 218.985 385.928C223.286 392.029 227.693 397.861 227.985 398.255C227.985 398.255 228.712 399.326 229.897 400.971C230.733 402.162 231.766 403.59 232.908 405.137Z" fill="#FFB0B1"/>
<path opacity="0.1" d="M194.383 142.957C193.374 145.42 192.471 147.977 192.337 150.719C191.959 158.637 192.571 176.34 184.474 180.314C180.464 182.271 176.172 177.975 171.774 177.872C168.61 177.799 165.709 179.973 163.777 182.69C161.846 185.407 160.647 188.631 159.246 191.704C157.971 194.494 156.503 197.176 154.853 199.725C154.36 200.506 153.817 201.248 153.228 201.945C148.291 199.69 143.894 196.244 140.374 191.87C136.853 187.496 134.3 182.31 132.911 176.707C131.522 171.103 131.333 165.231 132.358 159.536C133.383 153.841 135.595 148.475 138.825 143.846C142.056 139.217 146.22 135.448 151 132.825C155.78 130.202 161.05 128.795 166.408 128.712C171.766 128.628 177.072 129.869 181.919 132.342C186.767 134.814 191.03 138.452 194.383 142.978V142.957Z" fill="black"/>
<path d="M191.701 149.322C191.319 157.24 191.936 174.943 183.834 178.912C179.823 180.868 175.531 176.578 171.134 176.475C167.969 176.397 165.073 178.576 163.137 181.287C161.201 183.999 160.011 187.228 158.606 190.307C157.33 193.097 155.862 195.778 154.213 198.328C153.228 199.839 152.138 201.355 150.623 202.204C147.985 203.694 144.787 202.856 141.957 201.899C138.286 200.646 134.67 199.235 131.107 197.666C131.189 197.083 131.23 196.495 131.231 195.906C131.126 196.124 131.011 196.325 130.897 196.543L130.672 196.967C130.266 197.743 129.869 198.52 129.506 199.317C129.367 199.622 129.233 199.938 129.114 200.253C128.633 201.428 128.331 202.679 128.22 203.958C127.976 207.41 129.549 210.686 130.945 213.791C136.312 225.802 139.63 239.846 135.591 252.447C133.841 257.927 130.811 262.797 128.598 268.091C124.729 277.467 123.59 287.897 125.333 297.991C126.437 304.263 128.65 310.473 128.105 316.833C127.149 327.778 118.431 335.923 109.698 341.522C104.98 344.534 99.2063 347.215 94.197 344.834C97.39 340.798 98.2121 335.214 98.9004 329.946C100.784 315.577 102.672 301.201 104.565 286.819C105.32 281.095 106.073 275.372 106.825 269.648C108.231 258.895 109.655 248.023 108.776 237.202C108.135 229.227 106.328 220.761 109.521 213.542C111.209 209.718 114.215 206.551 115.152 202.432C115.921 199.084 115.204 195.523 115.711 192.113C115.988 190.562 116.458 189.058 117.107 187.642C117.933 185.721 119.012 183.94 120.309 182.353C119.028 181.95 117.833 181.396 117.107 180.237C119.162 178.788 119.473 175.522 118.541 173.07C117.609 170.617 115.745 168.748 114.067 166.813C112.389 164.878 110.774 162.621 110.563 159.982C110.157 154.957 114.793 151.066 115.611 146.108C116.438 141.063 113.168 136.157 113.431 131.049C113.737 124.876 118.976 120.389 124.148 117.786C131.952 113.875 140.573 112.268 149.137 113.129C156.106 113.843 162.85 116.177 169.8 117.082C173.992 117.6 178.241 117.652 182.405 118.449C186.568 119.246 190.741 120.927 193.671 124.234C201.395 132.954 192.141 140.131 191.701 149.322Z" fill="#575A89"/>
<path opacity="0.1" d="M185.239 383.744C182.801 382.6 178.365 383.284 170.751 380.774C163.137 378.264 161.669 366.921 161.669 366.921V366.884C161.579 366.626 160.871 364.939 156.082 359.029C150.791 352.503 139.352 319.545 139.352 319.545C139.352 319.545 129.209 307.751 129.53 303.404C129.85 299.057 127.728 287.491 127.938 274.554C128.148 261.617 150.771 253.037 150.771 253.037C194.33 244.68 184.073 299.047 182.911 303.166C181.75 307.285 187.777 318.411 187.777 318.411C186.926 323.255 191.266 330.753 191.266 330.753C191.266 330.753 192.318 337.388 192.533 339.908C192.545 340.024 192.569 340.139 192.605 340.249C193.303 342.625 198.991 344.777 201.304 346.086C203.737 347.463 211.562 359.479 211.562 359.479C213.249 368.302 187.667 384.903 185.239 383.744Z" fill="black"/>
<path d="M186.506 381.674C184.073 380.525 179.632 381.214 172.023 378.699C164.413 376.184 162.941 364.851 162.941 364.851V364.814C162.855 364.55 162.143 362.869 157.353 356.959C152.062 350.433 140.624 317.469 140.624 317.469C140.624 317.469 130.481 305.681 130.796 301.334C131.112 296.987 128.999 285.421 129.21 272.494C129.42 259.568 152.029 250.993 152.029 250.993C195.587 242.635 185.33 297.003 184.168 301.122C183.007 305.241 189.034 316.367 189.034 316.367C188.183 321.211 192.524 328.709 192.524 328.709C192.524 328.709 193.575 335.343 193.795 337.864C193.803 337.98 193.825 338.095 193.862 338.205C194.56 340.58 200.248 342.733 202.566 344.042C204.994 345.414 212.824 357.435 212.824 357.435C214.52 366.243 188.939 382.844 186.506 381.674Z" fill="#EB5569"/>
<path opacity="0.1" d="M152.889 279.377C152.889 279.377 171.918 301.112 176.884 301.112C181.85 301.112 152.889 279.377 152.889 279.377Z" fill="black"/>
<path d="M186.506 381.674C184.073 380.525 179.632 381.214 172.023 378.699C164.413 376.184 162.941 364.851 162.941 364.851V364.814C167.984 361.192 180.755 350.961 185.789 347.22C189.331 344.596 192.222 340.741 193.914 338.185C194.612 340.56 200.3 342.713 202.619 344.022C205.047 345.393 212.876 357.414 212.876 357.414C214.52 366.243 188.939 382.844 186.506 381.674Z" fill="#FF748E"/>
<g opacity="0.1">
<path opacity="0.1" d="M117.136 180.294C117.16 180.335 117.193 180.371 117.222 180.413C117.365 180.216 117.513 180.019 117.666 179.833C117.503 180.005 117.326 180.159 117.136 180.294Z" fill="black"/>
<path opacity="0.1" d="M128.225 204.015C128.426 201.143 129.845 198.613 131.174 196.087C130.304 195.725 129.434 195.358 128.574 194.975C128.656 194.394 128.697 193.808 128.698 193.221C127.355 195.808 125.892 198.354 125.687 201.268C125.443 204.724 127.016 207.995 128.411 211.1C133.784 223.106 137.096 237.15 133.057 249.756C131.303 255.231 128.277 260.106 126.064 265.4C122.197 274.775 121.06 285.203 122.804 295.295C123.899 301.572 126.117 307.777 125.572 314.137C124.616 325.082 115.902 333.227 107.165 338.821C103.594 341.108 99.4214 343.204 95.4302 343.054C95.0608 343.698 94.6486 344.312 94.197 344.891C99.2111 347.287 104.98 344.591 109.698 341.569C118.44 335.98 127.173 327.855 128.129 316.89C128.674 310.53 126.456 304.325 125.357 298.048C123.612 287.957 124.746 277.53 128.607 268.153C130.806 262.864 133.865 257.984 135.6 252.509C139.639 239.903 136.322 225.859 130.954 213.853C129.563 210.727 127.981 207.472 128.225 204.015Z" fill="black"/>
<path opacity="0.1" d="M193.661 124.296C193.191 123.774 192.686 123.29 192.151 122.847C197.944 130.982 189.579 137.896 189.163 146.652C188.79 154.569 189.402 172.278 181.3 176.242C177.295 178.203 172.998 173.908 168.605 173.804C165.436 173.732 162.539 175.911 160.603 178.622C158.668 181.334 157.477 184.563 156.077 187.637C154.799 190.426 153.329 193.108 151.68 195.658C150.724 197.174 149.605 198.685 148.085 199.539C145.456 201.024 142.258 200.191 139.424 199.229C136.668 198.29 133.937 197.255 131.231 196.124C131.226 196.663 131.184 197.2 131.107 197.733C134.673 199.306 138.291 200.717 141.962 201.966C144.792 202.929 147.989 203.762 150.623 202.277C152.138 201.423 153.238 199.906 154.218 198.39C155.869 195.844 157.337 193.164 158.61 190.374C160.016 187.3 161.201 184.066 163.142 181.354C165.082 178.643 167.974 176.469 171.138 176.542C175.536 176.645 179.833 180.941 183.838 178.979C191.94 175.015 191.324 157.307 191.701 149.389C192.141 140.183 201.395 133.011 193.661 124.296Z" fill="black"/>
</g>
<path opacity="0.1" d="M130.677 196.972C130.271 197.749 129.874 198.525 129.511 199.322C129.372 199.627 129.238 199.943 129.119 200.258C126.614 197.526 120.515 191.032 117.112 189.019C117.939 187.098 119.018 185.317 120.314 183.73C120.314 183.73 128.426 188.372 130.677 196.972Z" fill="black"/>
<path d="M130.902 196.548C129.023 187.342 120.314 182.359 120.314 182.359C119.017 183.945 117.938 185.726 117.112 187.647C120.701 189.774 127.317 196.905 129.511 199.322L130.902 196.548Z" fill="#EB5569"/>
<defs>
<linearGradient id="paint0_linear_111_37" x1="348.944" y1="49.4831" x2="348.944" y2="39.9717" gradientUnits="userSpaceOnUse">
<stop stop-color="#808080" stop-opacity="0.25"/>
<stop offset="0.54" stop-color="#808080" stop-opacity="0.12"/>
<stop offset="1" stop-color="#808080" stop-opacity="0.1"/>
</linearGradient>
<linearGradient id="paint1_linear_111_37" x1="219286" y1="340768" x2="219286" y2="23759.2" gradientUnits="userSpaceOnUse">
<stop stop-color="#808080" stop-opacity="0.25"/>
<stop offset="0.54" stop-color="#808080" stop-opacity="0.12"/>
<stop offset="1" stop-color="#808080" stop-opacity="0.1"/>
</linearGradient>
</defs>
</svg>
