<svg width="569" height="327" viewBox="0 0 569 327" fill="none" xmlns="http://www.w3.org/2000/svg">
<g filter="url(#filter0_d_294_25)">
<rect x="18" y="14" width="532.933" height="290.41" rx="8" fill="white"/>
</g>
<g opacity="0.5">
<path opacity="0.1" d="M227.467 279.035C244.029 279.035 257.456 276.883 257.456 274.228C257.456 271.572 244.029 269.42 227.467 269.42C210.904 269.42 197.478 271.572 197.478 274.228C197.478 276.883 210.904 279.035 227.467 279.035Z" fill="#587EEC"/>
<path opacity="0.1" d="M390.484 279.17C411.152 279.17 427.906 277.018 427.906 274.363C427.906 271.707 411.152 269.555 390.484 269.555C369.817 269.555 353.062 271.707 353.062 274.363C353.062 277.018 369.817 279.17 390.484 279.17Z" fill="#587EEC"/>
<path opacity="0.1" d="M118.657 142.611H149.893V185.105H120.944C120.867 185.541 120.793 185.98 120.713 186.419H149.893V220.69C149.841 220.675 149.795 220.656 149.745 220.638C148.921 220.312 148.102 219.968 147.283 219.599L146.76 219.363C145.939 218.976 145.119 218.566 144.298 218.134C144.012 217.984 143.725 217.827 143.442 217.667C138.886 215.12 134.747 211.892 131.168 208.095C131.064 207.994 130.965 207.886 130.861 207.788C130.362 207.247 129.873 206.7 129.399 206.141L128.876 205.527C128.315 204.842 127.774 204.138 127.247 203.426C127.17 203.321 127.097 203.217 127.017 203.118C124.876 200.156 123.099 196.949 121.723 193.565C121.68 193.463 121.643 193.353 121.603 193.258C121.18 192.172 120.806 191.077 120.48 189.971C120.338 189.507 120.203 189.049 120.086 188.567C120.042 188.425 120.006 188.287 119.972 188.149C118.224 181.338 118.017 174.264 118.017 167.238C118.017 166.418 118.017 165.595 118.017 164.781C118.017 161.939 118.051 159.079 118.1 156.222C118.1 155.482 118.131 154.745 118.147 154.001C118.19 152.115 118.251 150.229 118.331 148.343C118.35 147.818 118.374 147.295 118.402 146.773C118.402 146.472 118.417 146.171 118.448 145.87C118.522 144.776 118.584 143.692 118.657 142.611Z" fill="#587EEC"/>
<path opacity="0.1" d="M149.893 95.2966H132.76C135.545 90.9455 138.588 86.7643 141.873 82.7754C144.418 79.6543 147.105 76.6131 149.893 73.6825V95.2966Z" fill="#587EEC"/>
<path opacity="0.1" d="M149.893 96.6113V141.296H118.756C118.756 141.167 118.778 141.035 118.787 140.906C118.815 140.552 118.842 140.199 118.873 139.849C118.907 139.437 118.944 139.022 118.984 138.62C119.024 138.218 119.067 137.726 119.113 137.281C119.159 136.835 119.202 136.384 119.255 135.938C119.307 135.493 119.353 135.047 119.409 134.605C119.464 134.163 119.513 133.714 119.572 133.272C119.618 132.903 119.667 132.538 119.716 132.169C119.787 131.65 119.861 131.128 119.941 130.611C119.941 130.535 119.963 130.455 119.975 130.381C120.537 126.603 121.302 122.858 122.268 119.162C123.279 115.286 124.57 111.487 126.13 107.796C127.789 103.935 129.731 100.202 131.941 96.6267L149.893 96.6113Z" fill="#587EEC"/>
<path opacity="0.1" d="M157.351 142.608V185.105H224.066V142.608H157.351ZM157.351 186.416V222.911C157.732 222.991 158.111 223.068 158.486 223.132C158.997 223.23 159.505 223.32 160.025 223.396C160.124 223.412 160.225 223.427 160.333 223.436C160.536 223.47 160.745 223.498 160.948 223.525C161.462 223.596 161.973 223.654 162.487 223.7C162.73 223.725 162.977 223.747 163.223 223.765L163.817 223.811C164.14 223.836 164.46 223.854 164.777 223.863C164.974 223.863 165.171 223.882 165.374 223.888C165.528 223.888 165.682 223.888 165.842 223.888C166.002 223.888 166.23 223.888 166.424 223.888C166.688 223.888 166.953 223.888 167.215 223.888H167.569C167.833 223.888 168.098 223.888 168.36 223.863H168.378C168.56 223.863 168.744 223.863 168.929 223.839C168.98 223.842 169.032 223.842 169.083 223.839C169.237 223.839 169.391 223.839 169.538 223.817H169.646L170.677 223.737C171.016 223.707 171.357 223.667 171.702 223.63L172.404 223.547C175.258 223.148 178.082 222.548 180.852 221.753C187.075 220.02 193.163 217.597 199.383 215.821C207.425 213.532 216.31 212.408 224.082 215.207V186.416H157.351ZM224.066 95.2967V38.7208C216.762 38.6419 209.478 39.4946 202.39 41.2583C185.496 45.4945 170.339 54.6826 157.351 66.4174V95.2936H160.699V96.6053H157.351V141.296H224.066V96.6084H174.447V95.2967H224.066ZM309.759 76.1862C305.579 76.0387 301.424 74.7178 297.667 72.678C290.48 68.7766 284.74 62.7526 278.326 57.6685C265 47.0796 248.472 40.69 231.517 39.1048V95.2967H326.757L326.994 95.0478L309.759 76.1862ZM318.435 74.6502L327.634 84.7261V72.0083C324.554 72.3892 321.854 73.2955 318.447 74.6379L318.435 74.6502ZM327.634 231.973V186.416H308.032C307.98 186.223 307.928 186.026 307.866 185.83C307.925 186.026 307.974 186.223 308.029 186.416H231.53V219.363C232.256 219.9 232.973 220.466 233.684 221.04C234.45 221.655 235.207 222.303 235.968 222.939L236.734 223.571C237.1 223.879 237.47 224.186 237.842 224.475C238.581 225.073 239.326 225.662 240.08 226.244C240.452 226.551 240.834 226.828 241.212 227.116C247.222 231.703 253.562 235.842 260.18 239.499C261.664 240.319 263.16 241.118 264.67 241.899C265.677 242.412 266.689 242.922 267.705 243.416C269.232 244.16 270.77 244.876 272.322 245.566C286.623 251.974 301.745 256.371 317.256 258.631C320.701 259.139 324.16 259.539 327.631 259.829V231.97H327.939L327.634 231.973ZM231.53 96.6084V141.296H327.647V96.6084H231.53ZM231.53 142.608V185.105H327.647V142.608H231.53ZM335.107 71.953V86.1392L346.848 73.2801C342.958 72.6534 339.044 72.206 335.107 71.9377V71.953ZM335.107 142.623V185.105H428.592V142.608L335.107 142.623ZM428.251 235.346L428.58 186.416H335.107V260.318C341.129 260.57 347.159 260.499 353.173 260.103H353.278C356.15 259.923 359.01 259.66 361.855 259.316H361.92C377.103 257.553 391.948 253.599 405.993 247.579L428.251 235.346ZM446.619 149.605C446.268 148.779 445.902 147.959 445.529 147.148C444.834 145.612 444.098 144.119 443.341 142.626H436.047V185.105H454.488C454.479 173.075 451.429 160.787 446.628 149.59L446.619 149.605ZM436.047 186.432V228.517C441.242 223.547 445.631 217.861 448.792 211.36C452.592 203.533 454.331 195.058 454.473 186.426L436.047 186.432ZM436.047 130.24V141.299H442.658C440.658 137.492 438.454 133.795 436.056 130.225L436.047 130.24ZM372.646 80.2903C372.16 80.1059 371.673 79.9186 371.184 79.7373C366.023 77.8349 360.749 76.253 355.392 75.0004L337.424 94.6823L337.08 95.0478L337.311 95.2997H401.259C392.353 89.1806 382.751 84.1371 372.655 80.2749L372.646 80.2903ZM403.134 96.6237H336.418L335.107 97.8218V141.296H346.599H346.618H428.605V120.238C421.188 111.285 412.628 103.341 403.143 96.6084L403.134 96.6237Z" fill="#587EEC"/>
<path opacity="0.1" d="M149.893 119.15V141.296H118.756C118.756 141.167 118.778 141.035 118.787 140.906C118.815 140.552 118.842 140.199 118.873 139.849C118.907 139.437 118.944 139.023 118.984 138.62C119.024 138.218 119.067 137.726 119.113 137.281C119.159 136.835 119.202 136.384 119.255 135.938C119.307 135.493 119.353 135.048 119.409 134.605C119.464 134.163 119.513 133.714 119.572 133.272C119.618 132.903 119.667 132.538 119.716 132.169C119.787 131.65 119.861 131.128 119.941 130.612C119.941 130.535 119.963 130.455 119.975 130.381C120.537 126.603 121.302 122.858 122.268 119.163L149.893 119.15Z" fill="#587EEC"/>
<path opacity="0.1" d="M118.657 142.611H149.893V185.105H120.944C120.867 185.541 120.793 185.98 120.713 186.419H149.893V220.69C149.841 220.675 149.795 220.656 149.745 220.638C148.921 220.312 148.102 219.968 147.283 219.599L146.76 219.363C145.939 218.976 145.119 218.566 144.298 218.134C144.012 217.984 143.725 217.827 143.442 217.667C138.886 215.12 134.747 211.892 131.168 208.095C131.064 207.994 130.965 207.886 130.861 207.788C130.362 207.247 129.873 206.7 129.399 206.141L128.876 205.527C128.315 204.842 127.774 204.138 127.247 203.426C127.17 203.321 127.097 203.217 127.017 203.118C124.876 200.156 123.099 196.949 121.723 193.565C121.68 193.463 121.643 193.353 121.603 193.258C121.18 192.172 120.806 191.077 120.48 189.971C120.338 189.507 120.203 189.049 120.086 188.567C120.042 188.425 120.006 188.287 119.972 188.149C118.224 181.338 118.017 174.264 118.017 167.238C118.017 166.418 118.017 165.595 118.017 164.781C118.017 161.939 118.051 159.079 118.1 156.222C118.1 155.482 118.131 154.745 118.147 154.001C118.19 152.115 118.251 150.229 118.331 148.343C118.35 147.818 118.374 147.295 118.402 146.773C118.402 146.472 118.417 146.171 118.448 145.87C118.522 144.776 118.584 143.692 118.657 142.611Z" fill="#587EEC"/>
<path opacity="0.1" d="M180.837 103.007V141.296H157.351V103.007H160.699V90.0436H174.444V103.007H180.837Z" fill="#587EEC"/>
<path opacity="0.1" d="M180.837 142.608H157.354V185.102H180.837V142.608Z" fill="#587EEC"/>
<path opacity="0.1" d="M157.351 186.419H180.837V221.747C178.066 222.541 175.243 223.14 172.388 223.538L171.687 223.624C171.342 223.664 171 223.697 170.662 223.731C170.323 223.765 169.972 223.79 169.631 223.811H169.523C169.375 223.811 169.215 223.829 169.071 223.833H168.914C168.729 223.833 168.544 223.851 168.36 223.857C168.098 223.872 167.836 223.876 167.569 223.879C167.455 223.879 167.347 223.879 167.233 223.879C166.968 223.879 166.707 223.879 166.442 223.879H165.86C165.703 223.879 165.553 223.879 165.39 223.879L164.796 223.857C164.488 223.857 164.155 223.823 163.835 223.802L163.244 223.759L162.509 223.691C161.992 223.645 161.478 223.587 160.97 223.516L160.354 223.43L160.047 223.387C159.533 223.307 159.025 223.221 158.508 223.123C158.129 223.058 157.754 222.979 157.372 222.902L157.351 186.419Z" fill="#587EEC"/>
<path opacity="0.1" d="M327.647 98.4854H308.282V141.293H327.647V98.4854Z" fill="#587EEC"/>
<path opacity="0.1" d="M327.65 142.608V185.105H231.53V166.774H282.727V177.588H308.282V142.608H327.65Z" fill="#587EEC"/>
<path opacity="0.1" d="M327.954 231.982H327.646V259.86C324.179 259.567 320.722 259.169 317.275 258.665C301.756 256.397 286.627 251.991 272.322 245.573C268.191 243.717 264.145 241.692 260.183 239.496C253.565 235.837 247.224 231.698 241.212 227.113C239.702 225.958 238.211 224.777 236.74 223.568C235.721 222.73 234.709 221.869 233.684 221.034C232.973 220.459 232.256 219.894 231.53 219.354V186.419H308.026C307.974 186.223 307.921 186.026 307.866 185.833C307.925 186.026 307.98 186.223 308.032 186.419H327.646V231.964C327.751 231.967 327.853 231.976 327.954 231.982Z" fill="#587EEC"/>
<path opacity="0.1" d="M378.152 95.2965H365.533V91.3829H371.19V79.7249C371.68 79.903 372.169 80.0863 372.655 80.2747V91.3829H378.152V95.2965Z" fill="#587EEC"/>
<path opacity="0.1" d="M408.553 141.296H346.605C346.605 141.296 346.605 141.296 346.627 141.311L346.599 141.296H335.107V98.4883H338.363V130.129H353.244V111.39H365.536V96.6113H378.155V111.403H390.447V130.141H408.553V141.296Z" fill="#587EEC"/>
<path opacity="0.1" d="M335.107 142.608V185.105H408.553V142.608H335.107ZM428.491 235.128L428.592 201.49H408.553V186.438H335.107V260.318C341.128 260.57 347.159 260.499 353.173 260.103H353.278C356.15 259.923 359.009 259.661 361.855 259.316H361.92C377.103 257.553 391.948 253.599 405.993 247.579" fill="#587EEC"/>
<path opacity="0.1" d="M437.351 186.419H454.485C454.334 195.048 452.598 203.524 448.801 211.351C445.64 217.855 441.248 223.541 436.059 228.508V201.475H437.351V186.419Z" fill="#587EEC"/>
<path opacity="0.1" d="M454.494 185.104H437.352V149.59H446.628C451.429 160.787 454.479 173.075 454.494 185.104Z" fill="#587EEC"/>
<path opacity="0.1" d="M327.65 110.386H317.275V123.807H327.65V110.386Z" fill="#587EEC"/>
<path opacity="0.1" d="M327.65 138.205H317.275V141.296H327.65V138.205Z" fill="#587EEC"/>
<path opacity="0.1" d="M327.65 142.608H317.275V151.624H327.65V142.608Z" fill="#587EEC"/>
<path opacity="0.1" d="M327.65 166.025H317.275V179.446H327.65V166.025Z" fill="#587EEC"/>
<path opacity="0.1" d="M327.65 193.844H317.275V207.266H327.65V193.844Z" fill="#587EEC"/>
<path opacity="0.1" d="M327.647 231.964C327.751 231.964 327.853 231.964 327.954 231.982H327.647V235.1H317.275V221.664H327.647V231.964Z" fill="#587EEC"/>
<path opacity="0.1" d="M327.647 249.477V259.845C324.179 259.552 320.722 259.154 317.275 258.65V249.477H327.647Z" fill="#587EEC"/>
<path opacity="0.1" d="M275.993 184.119H231.53V185.105H275.993V184.119Z" fill="#587EEC"/>
<path opacity="0.1" d="M275.993 186.416H231.53V190.195H275.993V186.416Z" fill="#587EEC"/>
<path opacity="0.1" d="M275.993 202.581H231.53V208.657H275.993V202.581Z" fill="#587EEC"/>
<path opacity="0.1" d="M275.99 221.043V227.12H241.212C239.702 225.969 238.21 224.787 236.737 223.575C235.718 222.736 234.709 221.876 233.681 221.043H275.99Z" fill="#587EEC"/>
<path opacity="0.1" d="M275.99 239.502V245.573H272.319C268.192 243.715 264.147 241.689 260.183 239.493L275.99 239.502Z" fill="#587EEC"/>
<path opacity="0.1" d="M361.929 146.727H353.176V155.464H361.929V146.727Z" fill="#587EEC"/>
<path opacity="0.1" d="M172.41 106.021H163.657V114.757H172.41V106.021Z" fill="#587EEC"/>
<path opacity="0.1" d="M172.41 126.314H163.657V135.051H172.41V126.314Z" fill="#587EEC"/>
<path opacity="0.1" d="M172.41 146.607H163.657V155.344H172.41V146.607Z" fill="#587EEC"/>
<path opacity="0.1" d="M172.41 166.897H163.657V175.634H172.41V166.897Z" fill="#587EEC"/>
<path opacity="0.1" d="M172.41 187.19H163.657V195.927H172.41V187.19Z" fill="#587EEC"/>
<path opacity="0.1" d="M172.41 207.484H163.657V216.22H172.41V207.484Z" fill="#587EEC"/>
<path opacity="0.1" d="M395.344 146.727H386.591V155.464H395.344V146.727Z" fill="#587EEC"/>
<path opacity="0.1" d="M361.929 168.276H353.176V177.013H361.929V168.276Z" fill="#587EEC"/>
<path opacity="0.1" d="M395.344 168.276H386.591V177.013H395.344V168.276Z" fill="#587EEC"/>
<path opacity="0.1" d="M361.929 189.823H353.176V198.56H361.929V189.823Z" fill="#587EEC"/>
<path opacity="0.1" d="M395.344 189.823H386.591V198.56H395.344V189.823Z" fill="#587EEC"/>
<path opacity="0.1" d="M361.929 211.373H353.176V220.109H361.929V211.373Z" fill="#587EEC"/>
<path opacity="0.1" d="M395.344 211.373H386.591V220.109H395.344V211.373Z" fill="#587EEC"/>
<path opacity="0.1" d="M361.929 232.922H353.176V241.659H361.929V232.922Z" fill="#587EEC"/>
<path opacity="0.1" d="M395.344 232.922H386.591V241.659H395.344V232.922Z" fill="#587EEC"/>
<path opacity="0.1" d="M353.176 260.103V254.469H361.926V259.301L353.176 260.103Z" fill="#587EEC"/>
<path opacity="0.1" d="M119.938 130.375V135.373H149.893V130.375H119.938ZM122.923 135.06H120.48V130.682H122.942L122.923 135.06ZM125.906 135.06H123.443V130.682H125.906V135.06ZM128.882 135.06H126.42V130.682H128.882V135.06ZM131.864 135.06H129.405V130.682H131.867L131.864 135.06ZM134.843 135.06H132.381V130.682H134.843V135.06ZM137.826 135.06H135.363V130.682H137.826V135.06ZM140.808 135.06H138.346V130.682H140.808V135.06ZM143.787 135.06H141.325V130.682H143.787V135.06ZM146.766 135.06H144.304V130.682H146.766V135.06ZM149.746 135.06H147.283V130.682H149.746V135.06Z" fill="#587EEC"/>
<path opacity="0.1" d="M119.938 144.918V149.916H149.893V144.918H119.938ZM122.923 149.599H120.48V145.234H122.942L122.923 149.599ZM125.906 149.599H123.443V145.234H125.906V149.599ZM128.882 149.599H126.42V145.234H128.882V149.599ZM131.864 149.599H129.405V145.234H131.867L131.864 149.599ZM134.843 149.599H132.381V145.234H134.843V149.599ZM137.826 149.599H135.363V145.234H137.826V149.599ZM140.808 149.599H138.346V145.234H140.808V149.599ZM143.787 149.599H141.325V145.234H143.787V149.599ZM146.766 149.599H144.304V145.234H146.766V149.599ZM149.746 149.599H147.283V145.234H149.746V149.599Z" fill="#587EEC"/>
<path opacity="0.1" d="M119.938 159.466V164.473H149.893V159.466H119.938ZM122.923 164.148H120.48V159.78H122.942L122.923 164.148ZM125.906 164.148H123.443V159.78H125.906V164.148ZM128.882 164.148H126.42V159.78H128.882V164.148ZM131.864 164.148H129.405V159.78H131.867L131.864 164.148ZM134.843 164.148H132.381V159.78H134.843V164.148ZM137.826 164.148H135.363V159.78H137.826V164.148ZM140.808 164.148H138.346V159.78H140.808V164.148ZM143.787 164.148H141.325V159.78H143.787V164.148ZM146.766 164.148H144.304V159.78H146.766V164.148ZM149.746 164.148H147.283V159.78H149.746V164.148Z" fill="#587EEC"/>
<path opacity="0.1" d="M119.938 174.015V179.007H149.893V174.015H119.938ZM122.923 178.697H120.48V174.325H122.942L122.923 178.697ZM125.906 178.697H123.443V174.325H125.906V178.697ZM128.882 178.697H126.42V174.325H128.882V178.697ZM131.864 178.697H129.405V174.325H131.867L131.864 178.697ZM134.843 178.697H132.381V174.325H134.843V178.697ZM137.826 178.697H135.363V174.325H137.826V178.697ZM140.808 178.697H138.346V174.325H140.808V178.697ZM143.787 178.697H141.325V174.325H143.787V178.697ZM146.766 178.697H144.304V174.325H146.766V178.697ZM149.746 178.697H147.283V174.325H149.746V178.697Z" fill="#587EEC"/>
<path opacity="0.1" d="M120.067 188.561C120.187 189.031 120.323 189.501 120.464 189.964V188.874H122.926V193.242H121.609C121.649 193.344 121.689 193.454 121.729 193.549H149.893V188.561H120.067ZM125.915 193.242H123.453V188.874H125.915V193.242ZM128.891 193.242H126.429V188.874H128.891V193.242ZM131.873 193.242H129.405V188.874H131.867L131.873 193.242ZM134.852 193.242H132.39V188.874H134.852V193.242ZM137.835 193.242H135.373V188.874H137.835V193.242ZM140.817 193.242H138.355V188.874H140.817V193.242ZM143.796 193.242H141.334V188.874H143.796V193.242ZM146.776 193.242H144.313V188.874H146.776V193.242ZM149.755 193.242H147.293V188.874H149.755V193.242Z" fill="#587EEC"/>
<path opacity="0.1" d="M127.023 203.109C127.1 203.207 127.174 203.318 127.254 203.416H128.882V205.514C129.057 205.723 129.23 205.932 129.408 206.129V203.404H131.87V207.788H130.873C130.972 207.889 131.067 207.997 131.181 208.095H149.903V203.109H127.023ZM134.843 207.788H132.381V203.422H134.843V207.788ZM137.826 207.788H135.363V203.422H137.826V207.788ZM140.808 207.788H138.346V203.422H140.808V207.788ZM143.787 207.788H141.325V203.422H143.787V207.788ZM146.766 207.788H144.304V203.422H146.766V207.788ZM149.746 207.788H147.283V203.422H149.746V207.788Z" fill="#587EEC"/>
<path opacity="0.1" d="M143.455 217.655C143.735 217.815 144.021 217.962 144.31 218.122V217.968H146.772V219.35L147.296 219.593V217.968H149.758V220.625C149.805 220.649 149.855 220.667 149.906 220.681V217.655H143.455Z" fill="#587EEC"/>
<path opacity="0.1" d="M346.605 141.296H346.624H346.605ZM327.647 231.961H327.954H327.647ZM307.866 185.83C307.925 186.026 307.974 186.223 308.029 186.416C307.98 186.223 307.928 186.026 307.866 185.83ZM346.605 141.286H346.624H346.605ZM160.711 95.2874V96.5991H174.46V95.2874H160.711ZM327.647 231.961H327.954H327.647ZM307.866 185.83C307.925 186.026 307.974 186.223 308.029 186.416C307.98 186.223 307.928 186.026 307.866 185.83ZM346.605 141.286H346.624H346.605ZM327.647 231.952H327.954H327.647ZM307.866 185.83C307.925 186.026 307.974 186.223 308.029 186.416C307.98 186.223 307.928 186.026 307.866 185.83Z" fill="#587EEC"/>
<path d="M256.465 155.35C256.465 155.35 255.253 155.181 255.253 153.418C255.253 151.654 254.385 148.361 254.385 148.361C254.385 148.346 253.634 142.626 252.596 141.717C251.559 140.807 250.227 135.468 250.227 135.468C250.227 135.468 249.999 132.571 249.534 131.948C249.069 131.324 248.442 129.797 247.515 127.619C246.589 125.441 242.726 123.933 242.726 123.933C242.726 123.933 235.743 119.89 233.764 118.573C233.584 118.464 233.416 118.338 233.262 118.195C232.918 117.743 231.416 117.734 231.416 117.734C231.259 116.745 231.108 115.608 231.059 114.579C231.059 114.468 231.059 114.358 231.043 114.247C233.25 112.945 234.912 110.893 235.724 108.466C235.761 108.349 235.792 108.226 235.826 108.11C235.958 108.066 236.08 107.996 236.183 107.902C236.287 107.809 236.369 107.696 236.426 107.569C236.605 107.173 236.608 106.709 236.829 106.34C237.088 105.904 237.58 105.67 237.968 105.342C238.947 104.512 239.199 103.115 239.153 101.843C239.122 100.814 238.956 99.7754 239.021 98.7525L239.039 98.4944C239.058 98.3408 239.079 98.1872 239.107 98.0398C239.258 97.2779 239.587 96.5591 239.772 95.8034C239.956 95.0477 239.975 94.1968 239.544 93.5455C238.913 92.5902 237.599 92.3997 236.445 92.3014C235.137 92.1908 233.967 92.3352 233.13 91.2508C232.738 90.684 232.297 90.1526 231.813 89.6626C231.64 89.5029 229.966 88.483 229.966 88.4154C228.332 87.66 226.48 87.5182 224.749 88.0161C223.881 88.2679 223.063 88.6796 222.183 88.8854C220.284 89.3339 218.098 88.8485 216.486 89.9329C215.587 90.5473 215.048 91.5242 214.544 92.4765C214.133 93.2609 213.717 94.0442 213.294 94.8265C212.614 96.1137 211.921 97.4223 211.635 98.8477C211.575 99.1579 211.538 99.4721 211.524 99.7877V99.8031C211.524 99.9167 211.524 100.03 211.524 100.144V100.288C211.524 100.396 211.524 100.5 211.543 100.596C211.561 100.691 211.558 100.722 211.567 100.786C211.577 100.851 211.592 100.995 211.611 101.093C211.629 101.192 211.666 101.364 211.703 101.499C211.718 101.557 211.74 101.612 211.758 101.668C211.789 101.772 211.826 101.874 211.866 101.975C211.888 102.027 211.909 102.082 211.934 102.135C211.98 102.242 212.035 102.347 212.091 102.442C212.115 102.485 212.134 102.525 212.158 102.565C212.244 102.708 212.339 102.845 212.442 102.976C213.1 103.797 214.07 104.319 214.787 105.087C214.787 105.118 214.787 105.148 214.787 105.176C214.787 105.262 214.787 105.345 214.787 105.431C214.825 107.144 215.282 108.821 216.117 110.318C216.953 111.814 218.142 113.084 219.582 114.017C219.582 114.134 219.597 114.253 219.603 114.37C219.663 115.282 219.652 116.197 219.57 117.107C219.444 116.96 219.287 116.843 219.11 116.764C218.934 116.685 218.741 116.647 218.548 116.653C218.415 116.646 218.283 116.658 218.154 116.686L218.126 116.665V116.693C217.449 116.858 216.615 117.562 215.818 119.562C215.818 119.562 213.393 122.29 211.546 122.176C209.699 122.062 205.024 125.014 205.024 125.014C205.024 125.014 200.463 127.97 199.484 130.98C198.937 132.687 198.281 134.358 197.521 135.981L191.882 147.578L190.842 156.778C190.842 156.778 191.418 160.87 191.304 161.494C191.19 162.117 193.671 167.742 193.671 167.742C193.671 167.742 201.867 182.116 205.215 182.853L205.455 182.684C205.598 182.759 205.75 182.815 205.908 182.853L206.597 182.367C206.638 182.908 206.621 183.452 206.545 183.989C206.083 185.409 206.717 194.671 207.523 196.486C208.33 198.302 208.044 222.106 208.044 222.106L207.93 224.207C207.93 224.207 207.93 224.275 207.957 224.391L207.93 224.889L208.013 224.932C208.099 225.599 208.071 226.275 207.93 226.932C207.64 227.854 207.523 230.459 207.523 230.459C207.523 230.459 205.218 245.167 206.311 248.122C207.403 251.077 208.333 254.315 208.333 254.315C208.333 254.315 209.487 258.002 208.388 258.631C207.289 259.261 204.166 260.318 204.809 261.854C205.394 263.273 207.613 267.076 207.942 267.632L207.914 267.924L207.462 272.817C207.535 273.464 207.711 274.094 207.982 274.685C208.477 275.751 209.441 276.857 211.272 276.737C211.58 276.716 211.937 276.679 212.282 276.633C215.633 276.184 219.76 274.691 219.76 274.691C219.546 274.555 219.35 274.393 219.176 274.209C219.011 274.05 218.88 273.859 218.792 273.647C218.704 273.436 218.659 273.209 218.662 272.98C218.711 272.089 217.04 267.844 216.624 266.8C216.56 266.649 216.526 266.563 216.526 266.563C216.526 266.563 220.336 262.588 219.702 259.064C219.702 259.064 215.485 256.607 216.873 255.258C218.262 253.91 220.742 250.036 220.742 250.036C220.742 250.036 220.856 235.552 220.742 233.389C220.623 231.888 220.695 230.378 220.955 228.895C221.001 228.671 221.056 228.453 221.115 228.238C223.034 228.524 224.972 228.67 226.913 228.677C227.621 228.677 228.341 228.677 229.067 228.634C229.067 228.839 229.077 229.06 229.095 229.297C229.255 232.885 229.554 239.177 229.797 241.514C230.141 244.866 232.047 253.897 232.047 253.897C232.047 253.897 228.412 256.226 232.681 261.964C232.681 261.964 232.681 264.044 232.397 264.345C232.095 265.329 231.852 266.33 231.668 267.343C231.49 268.425 231.416 269.518 231.705 270.087C232.397 271.444 236.552 271.334 236.552 271.334L236.654 271.315C237.438 271.234 238.231 271.31 238.986 271.537C239.741 271.764 240.443 272.139 241.052 272.639C242.631 273.905 248.623 273.349 251.867 272.946C253.138 272.787 253.988 272.639 253.988 272.639C254.029 272.496 254.043 272.346 254.031 272.197C253.997 271.401 253.372 269.656 249.137 268.099C249.137 268.099 245.155 265.426 245.21 263.098H245.127H244.665C245.001 263.079 245.216 263.098 245.216 263.098C245.216 263.098 243.656 257.415 244.293 256.954C244.93 256.493 243.022 250.196 243.022 250.196C243.022 250.196 241.929 239.628 241.871 238.888C241.873 238.253 241.97 237.621 242.157 237.014L241.871 231.22C241.871 231.22 241.815 229.294 241.871 228.668C241.861 228.124 241.817 227.581 241.738 227.043C241.711 226.828 241.683 226.603 241.652 226.382C243.145 226.004 244.114 225.654 244.114 225.654L243.942 205.487C245.21 203.029 245.444 197.638 245.438 193.813C245.438 191.356 245.327 189.537 245.327 189.537L247.06 186.714C247.06 186.714 247.46 183.335 246.826 182.595C246.546 182.26 246.672 181.913 246.903 181.627C247.023 181.532 247.149 181.446 247.281 181.369C247.281 181.369 247.263 181.341 247.241 181.301C247.362 181.201 247.491 181.109 247.626 181.028C247.626 181.028 247.01 180.076 247.561 179.673C248.078 180.024 248.54 180.288 248.891 180.503C248.866 180.727 248.842 180.856 248.842 180.856L248.989 180.549C249.328 180.739 249.534 180.856 249.534 180.856C249.534 180.856 252.249 175.459 252.19 174.663C252.132 173.867 254.037 170.516 254.037 170.516C254.037 170.516 254.268 168.756 255.308 168.018C256.348 167.281 256.114 161.939 256.114 161.939C256.114 161.939 256.404 159.156 257.096 158.019C257.789 156.883 256.465 155.35 256.465 155.35ZM204.526 152.981L204.578 154.268C204.27 153.774 204.049 153.418 204.049 153.418L204.526 152.981Z" fill="url(#paint0_linear_294_25)"/>
<path d="M249.682 178.525L249.017 181.351C249.017 181.351 243.693 178.638 242.732 175.192C241.772 171.745 244.339 170.436 244.339 170.436L249.3 172.534L249.682 178.525Z" fill="white"/>
<path opacity="0.1" d="M249.682 178.525L249.017 181.351C249.017 181.351 243.693 178.638 242.732 175.192C241.772 171.745 244.339 170.436 244.339 170.436L249.3 172.534L249.682 178.525Z" fill="black"/>
<path d="M219.8 274.71C219.8 274.71 214.876 276.516 211.49 276.743C209.693 276.863 208.748 275.764 208.262 274.704C207.996 274.115 207.825 273.487 207.754 272.845L208.194 267.976L208.428 265.383L215.621 263.519L216.64 266.628L216.735 266.864C217.144 267.902 218.785 272.126 218.735 273.008C218.733 273.234 218.777 273.458 218.864 273.666C218.951 273.875 219.079 274.064 219.24 274.221C219.405 274.407 219.594 274.571 219.8 274.71Z" fill="white"/>
<path d="M253.437 272.234C253.449 272.382 253.435 272.531 253.394 272.673C253.394 272.673 242.862 274.427 240.707 272.673C240.1 272.161 239.392 271.781 238.629 271.557C237.865 271.334 237.064 271.273 236.275 271.377C236.275 271.377 232.201 271.487 231.52 270.148C231.237 269.586 231.311 268.495 231.487 267.42C231.666 266.413 231.904 265.417 232.201 264.437L232.364 264.308L233.333 263.531L244.684 263.196H244.77C244.715 265.513 248.623 268.17 248.623 268.17C252.775 269.706 253.388 271.441 253.437 272.234Z" fill="white"/>
<path opacity="0.1" d="M253.437 272.234C253.448 272.382 253.432 272.531 253.391 272.673C253.391 272.673 242.862 274.427 240.707 272.673C240.1 272.161 239.393 271.781 238.63 271.558C237.867 271.335 237.066 271.273 236.279 271.377C236.279 271.377 232.201 271.487 231.523 270.148C231.24 269.583 231.311 268.495 231.486 267.42C233.056 267.577 235.534 267.967 236.506 268.898C237.977 270.314 240.47 271.727 242 271.838C243.197 271.914 250.359 272.142 253.437 272.234Z" fill="black"/>
<path opacity="0.1" d="M219.801 274.71C219.801 274.71 214.876 276.516 211.491 276.744C209.693 276.863 208.748 275.764 208.265 274.701C209.518 275.122 211.257 275.564 212.171 275.158C213.254 274.679 217.095 274.369 219.25 274.237C219.414 274.416 219.599 274.575 219.801 274.71Z" fill="black"/>
<path d="M227.107 129.146C223.044 127.57 217.818 122.363 219.123 119.93C219.413 119.316 219.585 118.654 219.631 117.977C219.715 117.057 219.727 116.133 219.668 115.212C219.577 113.703 219.395 112.202 219.123 110.715C219.123 110.715 231.807 111 231.068 112.865C230.852 113.412 230.819 114.361 230.877 115.424C230.936 116.487 231.089 117.688 231.249 118.705C231.471 120.099 231.693 121.162 231.693 121.162C231.693 121.162 230.917 122.247 230.462 122.305C230.006 122.363 232.936 131.392 227.107 129.146Z" fill="#CF6F80"/>
<path opacity="0.1" d="M216.726 266.864L216.63 266.969C212.839 262.391 208.253 268.096 208.253 268.096L208.185 267.976L208.419 265.383L215.612 263.519L216.63 266.628L216.726 266.864Z" fill="black"/>
<path opacity="0.1" d="M244.773 263.519C244.773 263.519 242.003 263.46 240.526 264.763C239.048 266.065 231.908 265.046 232.216 264.763C232.307 264.623 232.362 264.462 232.376 264.296L233.345 263.519L244.696 263.184C244.739 263.39 244.773 263.519 244.773 263.519Z" fill="black"/>
<path d="M221.444 227.574C221.238 228.083 221.081 228.611 220.976 229.15C220.719 230.626 220.648 232.129 220.764 233.623C220.878 235.773 220.764 250.184 220.764 250.184C220.764 250.184 218.329 254.027 216.972 255.381C215.615 256.736 219.742 259.169 219.742 259.169C220.357 262.671 216.627 266.628 216.627 266.628C212.836 262.05 208.25 267.758 208.25 267.758C208.25 267.758 205.757 263.457 205.135 261.921C204.513 260.385 207.57 259.323 208.644 258.699C209.718 258.075 208.591 254.398 208.591 254.398C208.591 254.398 207.683 251.176 206.606 248.236C205.529 245.296 207.794 230.661 207.794 230.661C207.794 230.661 207.911 228.063 208.191 227.156C208.333 226.502 208.361 225.829 208.274 225.166C208.256 224.942 208.234 224.754 208.219 224.628C208.204 224.502 208.191 224.444 208.191 224.444L208.234 224.37L209.773 221.507C209.773 221.507 222.183 225.771 221.444 227.574Z" fill="#587EEC"/>
<path d="M244.773 263.181C244.773 263.181 242.003 263.123 240.526 264.41C239.048 265.697 231.908 264.693 232.216 264.41C232.524 264.127 232.499 262.035 232.499 262.035C228.31 256.328 231.883 254.011 231.883 254.011C231.883 254.011 230.012 245.026 229.674 241.693C229.437 239.364 229.144 233.107 228.987 229.534C228.92 227.998 228.88 226.941 228.88 226.941L232.302 226.253L232.742 226.164L240.997 224.512C240.997 224.512 241.224 226.048 241.378 227.304C241.455 227.84 241.498 228.381 241.507 228.923C241.452 229.537 241.507 231.46 241.507 231.46L241.788 237.226C241.605 237.831 241.51 238.459 241.507 239.091C241.563 239.825 242.637 250.337 242.637 250.337C242.637 250.337 244.505 256.61 243.868 257.062C243.231 257.513 244.773 263.181 244.773 263.181Z" fill="#587EEC"/>
<path opacity="0.1" d="M231.068 112.865C230.852 113.412 230.819 114.361 230.877 115.424C229.178 116.445 227.225 116.967 225.242 116.93C223.26 116.893 221.328 116.299 219.668 115.215C219.577 113.705 219.395 112.203 219.123 110.715C219.123 110.715 231.807 110.994 231.068 112.865Z" fill="black"/>
<path d="M235.971 106.076C235.973 107.183 235.799 108.283 235.454 109.335C234.682 111.693 233.101 113.702 230.99 115.008C228.878 116.315 226.371 116.834 223.913 116.474C221.455 116.114 219.204 114.898 217.557 113.042C215.91 111.185 214.973 108.807 214.913 106.328C214.913 106.242 214.913 106.162 214.913 106.076C214.889 104.681 215.144 103.295 215.662 101.998C216.181 100.702 216.953 99.5223 217.933 98.527C218.913 97.5318 220.082 96.7413 221.371 96.2017C222.661 95.6622 224.045 95.3843 225.443 95.3843C226.842 95.3843 228.226 95.6622 229.515 96.2017C230.805 96.7413 231.974 97.5318 232.954 98.527C233.934 99.5223 234.706 100.702 235.224 101.998C235.743 103.295 235.998 104.681 235.974 106.076H235.971Z" fill="#CF6F80"/>
<path opacity="0.1" d="M227.107 129.146C223.044 127.57 217.818 122.364 219.123 119.931C219.413 119.317 219.585 118.654 219.631 117.977L225.193 122.539L228.633 125.356L231.249 118.708C231.471 120.103 231.693 121.165 231.693 121.165C231.693 121.165 230.917 122.25 230.462 122.308C230.006 122.367 232.936 131.392 227.107 129.146Z" fill="black"/>
<path d="M241.489 149.307L236.845 227.181L230.788 227.577L215.104 182.423L217.677 128.815L218.219 117.488L225.193 123.205L228.637 126.022L231.33 119.181L236.337 123.537L241.489 149.307Z" fill="#587EEC"/>
<path opacity="0.1" d="M221.444 227.574C221.238 228.083 221.081 228.611 220.976 229.15C216.569 228.471 212.288 227.136 208.277 225.19L208.194 225.147L208.222 224.653L208.237 224.395L209.776 221.532C209.776 221.532 222.183 225.771 221.444 227.574Z" fill="black"/>
<path opacity="0.1" d="M232.373 229.162C231.246 229.354 230.11 229.483 228.969 229.549C228.901 228.013 228.861 226.957 228.861 226.957L232.284 226.269L232.373 229.162Z" fill="black"/>
<path opacity="0.1" d="M241.36 227.319C239.172 227.888 235.792 228.527 232.767 228.127L232.724 226.18L240.978 224.527C240.978 224.527 241.206 226.047 241.36 227.319Z" fill="black"/>
<path opacity="0.1" d="M232.712 228.483C220.093 230.634 208.536 224.468 208.536 224.468L208.647 222.38C208.647 222.38 208.933 198.698 208.139 196.882C207.345 195.067 206.726 185.86 207.176 184.447C207.625 183.034 205.535 161.844 205.535 161.844L205.197 153.243L192.806 148.232L198.346 136.706C199.094 135.09 199.738 133.428 200.272 131.73C201.236 128.738 205.708 125.798 205.708 125.798C205.708 125.798 210.293 122.861 212.106 122.972C213.919 123.082 216.295 120.373 216.295 120.373C218.049 115.909 219.637 117.931 219.637 117.931C219.637 118.143 219.637 117.931 219.551 118.591C218.936 123.491 229.505 138.973 229.655 139.247L230.662 163.718L231.681 194.686L232.712 228.483Z" fill="black"/>
<path d="M232.373 228.483C219.754 230.634 208.194 224.468 208.194 224.468L208.308 222.379C208.308 222.379 208.594 198.698 207.797 196.882C207 195.067 206.385 185.86 206.837 184.447C207.29 183.034 205.197 161.844 205.197 161.844L204.855 153.243L192.458 148.214L197.998 136.688C198.745 135.071 199.388 133.409 199.925 131.711C200.885 128.719 205.36 125.779 205.36 125.779C205.36 125.779 209.946 122.843 211.755 122.953C213.565 123.064 215.944 120.354 215.944 120.354C217.701 115.891 219.637 117.912 219.637 117.912C219.637 118.124 219.453 118.219 219.551 118.573C220.905 123.325 229.166 138.955 229.317 139.228L230.335 163.699L231.354 194.668L232.373 228.483Z" fill="white"/>
<path opacity="0.1" d="M228.972 139.926C227.615 139.361 220.425 131.168 220.425 131.168V129.303C220.164 128.689 218.609 129.063 217.348 129.493L217.889 118.167L218.505 118.677C219.853 123.426 228.815 139.652 228.972 139.926Z" fill="black"/>
<path d="M229.314 139.247C227.953 138.682 220.764 130.489 220.764 130.489V128.624C220.502 128.01 218.948 128.384 217.686 128.815L218.231 117.488L218.846 117.998C220.197 122.747 229.163 138.976 229.314 139.247Z" fill="white"/>
<path opacity="0.1" d="M208.536 180.107C208.705 180.107 217.311 179.203 217.311 179.203C217.311 179.203 222.521 189.43 222.179 191.918C221.838 194.406 221.219 196.609 219.123 196.219C217.027 195.829 207.844 196.526 207.844 196.526L208.536 180.107Z" fill="black"/>
<path d="M208.194 179.428C208.364 179.428 216.969 178.525 216.969 178.525C216.969 178.525 222.176 188.754 221.838 191.239C221.499 193.725 220.875 195.93 218.782 195.54C216.689 195.15 207.502 195.847 207.502 195.847L208.194 179.428Z" fill="white"/>
<path d="M214.679 174.626C214.679 174.626 222.577 178.863 222.746 180.156C222.915 181.449 218.726 179.591 217.822 179.366C217.226 179.223 216.62 179.129 216.009 179.084L209.973 179.247L214.679 174.626Z" fill="#CF6F80"/>
<path opacity="0.1" d="M226.768 140.454C227.227 140.454 227.599 140.083 227.599 139.625C227.599 139.167 227.227 138.795 226.768 138.795C226.309 138.795 225.937 139.167 225.937 139.625C225.937 140.083 226.309 140.454 226.768 140.454Z" fill="black"/>
<path d="M226.768 140.116C227.227 140.116 227.599 139.745 227.599 139.287C227.599 138.829 227.227 138.458 226.768 138.458C226.309 138.458 225.937 138.829 225.937 139.287C225.937 139.745 226.309 140.116 226.768 140.116Z" fill="#3F3D56"/>
<path opacity="0.1" d="M228.298 176.359C228.757 176.359 229.129 175.987 229.129 175.529C229.129 175.071 228.757 174.7 228.298 174.7C227.839 174.7 227.467 175.071 227.467 175.529C227.467 175.987 227.839 176.359 228.298 176.359Z" fill="black"/>
<path d="M228.298 176.018C228.757 176.018 229.129 175.647 229.129 175.188C229.129 174.73 228.757 174.359 228.298 174.359C227.839 174.359 227.467 174.73 227.467 175.188C227.467 175.647 227.839 176.018 228.298 176.018Z" fill="#3F3D56"/>
<path opacity="0.1" d="M227.596 158.407C228.055 158.407 228.427 158.035 228.427 157.577C228.427 157.119 228.055 156.748 227.596 156.748C227.137 156.748 226.765 157.119 226.765 157.577C226.765 158.035 227.137 158.407 227.596 158.407Z" fill="black"/>
<path d="M227.596 158.069C228.055 158.069 228.427 157.697 228.427 157.239C228.427 156.781 228.055 156.41 227.596 156.41C227.137 156.41 226.765 156.781 226.765 157.239C226.765 157.697 227.137 158.069 227.596 158.069Z" fill="#3F3D56"/>
<path d="M246.752 178.912C246.752 178.912 247.318 179.759 246.752 180.156C246.186 180.552 246.807 181.51 246.807 181.51C246.807 181.51 245.395 182.337 246.016 183.08C246.638 183.824 246.244 187.181 246.244 187.181L244.545 189.989C244.545 189.989 244.647 191.798 244.653 194.244C244.653 198.059 244.428 203.423 243.185 205.868L243.357 225.931C243.357 225.931 237.408 228.099 232.428 227.439L231.69 195.245C231.69 195.245 232.767 176.989 233.164 173.487C233.396 171.668 233.491 169.835 233.447 168.003C233.447 168.003 233.278 162.523 232.708 159.979C232.708 159.979 232.093 148.96 232.031 145.91C232.004 144.451 232.081 140.193 232.167 136.144C232.262 131.717 232.37 127.543 232.37 127.543L231.246 118.671C231.246 118.671 232.37 118.557 232.708 119.009C232.86 119.15 233.025 119.277 233.201 119.387C235.14 120.695 241.991 124.72 241.991 124.72C241.991 124.72 245.782 126.225 246.69 128.381C247.598 130.538 248.229 132.068 248.669 132.682C249.109 133.296 249.35 136.184 249.35 136.184C249.35 136.184 250.655 141.498 251.673 142.399C252.692 143.299 253.437 149.025 253.437 149.025L244.434 156.09C244.434 156.09 243.643 167.843 243.474 168.298C243.305 168.753 246.752 178.912 246.752 178.912Z" fill="white"/>
<path d="M247.094 178.912C247.094 178.912 247.657 179.76 247.094 180.156C246.53 180.552 247.146 181.511 247.146 181.511C247.146 181.511 245.742 182.346 246.358 183.09C246.973 183.833 246.586 187.191 246.586 187.191L244.887 189.998C244.887 189.998 244.988 191.808 244.998 194.253C244.998 198.068 244.773 203.432 243.53 205.877L243.699 225.94C243.699 225.94 237.74 228.109 232.767 227.448L232.031 195.254C232.031 195.254 233.108 176.998 233.505 173.496C233.738 171.678 233.832 169.845 233.786 168.013C233.786 168.013 233.616 162.532 233.05 159.989C233.05 159.989 232.434 148.97 232.37 145.919C232.342 144.46 232.422 140.202 232.505 136.154C232.601 131.727 232.708 127.552 232.708 127.552L231.225 118.561C231.225 118.561 232.708 118.561 233.05 119.018C233.2 119.161 233.365 119.288 233.542 119.396C235.481 120.705 242.335 124.729 242.335 124.729C242.335 124.729 246.124 126.234 247.032 128.391C247.94 130.547 248.571 132.077 249.014 132.691C249.457 133.306 249.691 136.193 249.691 136.193C249.691 136.193 250.996 141.508 252.015 142.408C253.034 143.308 253.769 149.022 253.769 149.022L244.767 156.087C244.767 156.087 243.976 167.841 243.803 168.295C243.631 168.75 247.094 178.912 247.094 178.912Z" fill="white"/>
<path opacity="0.1" d="M236.312 130.16L237.125 132.525L232.847 136.826C232.942 132.403 233.05 128.225 233.05 128.225L231.567 119.233C231.567 119.233 233.05 119.233 233.392 119.691C233.541 119.834 233.707 119.959 233.884 120.066L237.522 130.541L236.312 130.16Z" fill="black"/>
<path d="M235.971 129.481L236.786 131.847L232.508 136.147C232.604 131.721 232.711 127.546 232.711 127.546L231.225 118.554C231.225 118.554 232.711 118.554 233.05 119.012C233.201 119.154 233.366 119.281 233.542 119.39L237.183 129.862L235.971 129.481Z" fill="white"/>
<path opacity="0.1" d="M235.971 106.076C235.973 107.183 235.799 108.283 235.454 109.335C235.395 109.345 235.336 109.342 235.279 109.328C235.222 109.313 235.168 109.288 235.121 109.253C235.041 106.488 233.678 103.892 232 101.683C231.529 101.016 230.959 100.426 230.308 99.9323C229.65 99.439 228.831 99.2079 228.012 99.2841C227.088 99.41 226.273 100.037 225.34 100.117C224.109 100.218 223.007 99.367 221.785 99.324C221.289 99.3287 220.799 99.4391 220.348 99.6478C219.898 99.8566 219.497 100.159 219.172 100.534C218.531 101.292 218.054 102.175 217.772 103.127C217.288 104.57 217.025 106.078 216.99 107.6C216.975 108.46 216.892 109.538 216.092 109.852C216.152 109.219 216.08 108.581 215.88 107.977C215.68 107.374 215.357 106.819 214.931 106.346L214.913 106.328C214.913 106.242 214.913 106.162 214.913 106.076C214.889 104.681 215.144 103.295 215.662 101.998C216.181 100.702 216.953 99.5223 217.933 98.527C218.913 97.5318 220.082 96.7413 221.371 96.2017C222.661 95.6622 224.045 95.3843 225.443 95.3843C226.842 95.3843 228.226 95.6622 229.515 96.2017C230.805 96.7413 231.974 97.5318 232.954 98.527C233.934 99.5223 234.706 100.702 235.224 101.998C235.743 103.295 235.998 104.681 235.974 106.076H235.971Z" fill="black"/>
<path d="M229.803 89.3864C228.204 88.6355 226.385 88.4935 224.688 88.987C223.835 89.2389 223.032 89.6475 222.167 89.8533C220.32 90.2987 218.166 89.8165 216.581 90.8947C215.701 91.5091 215.171 92.4798 214.679 93.4229L213.448 95.7637C212.777 97.0447 212.1 98.3472 211.82 99.7572C211.54 101.167 211.709 102.746 212.605 103.88C213.257 104.706 214.22 105.225 214.928 106.002C215.352 106.475 215.674 107.03 215.873 107.633C216.072 108.236 216.145 108.873 216.086 109.504C216.889 109.197 216.966 108.116 216.984 107.256C217.019 105.734 217.282 104.226 217.766 102.783C218.047 101.831 218.524 100.948 219.166 100.19C219.491 99.8151 219.892 99.5131 220.342 99.3044C220.793 99.0957 221.283 98.9851 221.779 98.98C223.01 99.023 224.115 99.8709 225.334 99.7695C226.257 99.6927 227.076 99.063 228.006 98.9401C228.825 98.8627 229.644 99.0939 230.302 99.5883C230.952 100.081 231.522 100.672 231.991 101.339C233.672 103.548 235.035 106.138 235.115 108.909C235.463 109.163 235.965 108.832 236.137 108.439C236.309 108.045 236.315 107.585 236.534 107.21C236.786 106.777 237.269 106.546 237.648 106.221C238.608 105.394 238.848 104.003 238.811 102.74C238.774 101.478 238.528 100.197 238.768 98.9555C238.913 98.1936 239.239 97.4809 239.418 96.7283C239.596 95.9757 239.618 95.1309 239.196 94.4827C238.581 93.5304 237.285 93.343 236.155 93.254C234.872 93.1434 233.724 93.2847 232.905 92.2064C232.521 91.6438 232.088 91.1154 231.613 90.6274C231.45 90.4677 229.803 89.454 229.803 89.3864Z" fill="#512E4E"/>
<path opacity="0.1" d="M196.351 154.167L193.135 148.232L192.116 157.389C192.116 157.389 192.683 161.457 192.569 162.08C192.455 162.704 194.889 168.295 194.889 168.295C194.889 168.295 202.932 182.592 206.215 183.329L217.311 175.416L214.368 171.686C214.368 171.686 213.35 171.29 213.094 171.686C213.094 171.686 207.631 162.305 207.065 161.626C206.499 160.947 206.609 159.592 206.609 159.592C206.609 159.592 205.76 158.689 206.043 157.841C206.326 156.993 204.403 154.053 204.403 154.053L206.157 152.416L196.351 154.167Z" fill="black"/>
<path d="M193.304 147.557L192.455 148.232L191.436 157.39C191.436 157.39 192.002 161.457 191.889 162.081C191.775 162.704 194.212 168.295 194.212 168.295C194.212 168.295 202.251 182.592 205.535 183.329L216.633 175.416L213.688 171.687C213.688 171.687 212.669 171.29 212.414 171.687C212.414 171.687 206.951 162.305 206.385 161.626C205.818 160.947 205.932 159.592 205.932 159.592C205.932 159.592 205.083 158.689 205.366 157.841C205.649 156.994 203.722 154.054 203.722 154.054L205.477 152.416L193.304 147.557Z" fill="white"/>
<path opacity="0.1" d="M246.016 183.43C246.632 184.177 246.244 187.528 246.244 187.528L244.545 190.336C244.545 190.336 244.647 192.149 244.653 194.591L241.797 195.482C241.539 195.562 241.265 195.58 240.999 195.533C240.732 195.487 240.481 195.377 240.266 195.214C240.05 195.051 239.877 194.838 239.761 194.595C239.644 194.351 239.588 194.083 239.596 193.814L240.089 177.959L246.752 180.503C246.186 180.896 246.807 181.861 246.807 181.861C246.807 181.861 245.395 182.684 246.016 183.43Z" fill="black"/>
<path d="M246.358 183.09C246.974 183.836 246.586 187.191 246.586 187.191L244.887 189.998C244.887 189.998 244.988 191.808 244.998 194.253L242.089 195.159C241.836 195.238 241.569 195.255 241.308 195.209C241.047 195.163 240.801 195.056 240.59 194.896C240.38 194.736 240.21 194.528 240.096 194.29C239.982 194.051 239.927 193.789 239.935 193.525L240.43 177.621L247.097 180.165C246.527 180.558 247.149 181.52 247.149 181.52C247.149 181.52 245.743 182.346 246.358 183.09Z" fill="white"/>
<path d="M248.565 175.533C248.565 175.533 248.112 178.417 246.98 178.586C245.847 178.755 245.339 183.252 244.21 183.093C243.08 182.933 243.828 178.912 243.868 178.131C243.908 177.351 242.637 174.119 243.588 173.385C244.539 172.651 247.549 173.385 247.549 173.385L248.565 175.533Z" fill="#CF6F80"/>
<path opacity="0.1" d="M250.974 153.319L253.11 149.019C253.11 149.019 253.96 152.296 253.96 154.047C253.96 155.798 255.148 155.97 255.148 155.97C255.148 155.97 256.45 157.506 255.763 158.624C255.077 159.743 254.8 162.526 254.8 162.526C254.8 162.526 255.025 167.837 254.006 168.571C252.987 169.306 252.775 171.06 252.775 171.06C252.775 171.06 250.904 174.393 250.962 175.185C251.021 175.978 248.358 181.345 248.358 181.345C248.358 181.345 249.66 174.675 242.074 171.794C242.074 171.794 242.015 169.53 242.582 168.909C243.148 168.289 244.031 168.006 243.477 164.87C242.923 161.733 243.317 157.986 243.317 157.233C243.317 156.48 245.016 151.786 245.016 151.786L250.974 153.319Z" fill="black"/>
<path d="M251.898 148.404L253.763 149.019C253.763 149.019 254.616 152.296 254.616 154.047C254.616 155.798 255.804 155.97 255.804 155.97C255.804 155.97 257.105 157.506 256.419 158.624C255.733 159.743 255.459 162.526 255.459 162.526C255.459 162.526 255.684 167.837 254.665 168.571C253.646 169.306 253.418 171.06 253.418 171.06C253.418 171.06 251.55 174.393 251.609 175.185C251.667 175.978 249.002 181.345 249.002 181.345C249.002 181.345 250.307 174.675 242.717 171.794C242.717 171.794 242.662 169.53 243.228 168.909C243.794 168.289 244.678 168.006 244.124 164.87C243.57 161.733 243.964 157.986 243.964 157.233C243.964 156.48 245.663 151.786 245.663 151.786L251.898 148.404Z" fill="white"/>
<path opacity="0.1" d="M210.703 259.876C210.703 259.876 213.676 258.011 215.627 259.366C217.578 260.72 210.703 259.876 210.703 259.876Z" fill="black"/>
<path opacity="0.1" d="M233.804 254.109C233.804 254.109 236.435 253.772 238.645 256.146C240.855 258.521 233.804 254.109 233.804 254.109Z" fill="black"/>
<g opacity="0.1">
<path opacity="0.1" d="M237.654 105.548C237.276 105.873 236.789 106.107 236.537 106.54C236.322 106.912 236.315 107.369 236.143 107.769C235.971 108.168 235.469 108.494 235.121 108.242C235.041 105.477 233.675 102.881 231.997 100.67C231.528 100.002 230.958 99.4113 230.308 98.9185C229.649 98.4242 228.829 98.1931 228.009 98.2704C227.085 98.3963 226.273 99.023 225.34 99.0998C224.109 99.2042 223.004 98.3533 221.782 98.3103C221.286 98.3152 220.796 98.426 220.346 98.6353C219.896 98.8446 219.496 99.1475 219.173 99.5237C218.53 100.28 218.053 101.162 217.772 102.113C217.289 103.557 217.025 105.064 216.99 106.586C216.972 107.443 216.892 108.512 216.098 108.832C216.116 109.059 216.116 109.287 216.098 109.514C216.898 109.206 216.978 108.125 216.997 107.265C217.031 105.743 217.294 104.236 217.778 102.792C218.059 101.84 218.536 100.957 219.179 100.2C219.503 99.8243 219.903 99.5223 220.353 99.3136C220.803 99.1049 221.292 98.9943 221.789 98.9892C223.02 99.0322 224.128 99.88 225.346 99.7787C226.27 99.7019 227.088 99.0721 228.015 98.9492C228.835 98.872 229.655 99.1031 230.314 99.5974C230.965 100.09 231.535 100.681 232.004 101.348C233.681 103.557 235.047 106.147 235.127 108.918C235.475 109.173 235.977 108.841 236.149 108.448C236.322 108.054 236.328 107.594 236.543 107.219C236.796 106.786 237.282 106.555 237.66 106.23C238.621 105.403 238.861 104.012 238.824 102.749C238.824 102.709 238.824 102.669 238.824 102.632C238.765 103.726 238.473 104.841 237.654 105.548Z" fill="black"/>
<path opacity="0.1" d="M214.935 105.33C214.227 104.552 213.26 104.033 212.611 103.21C212.064 102.481 211.752 101.604 211.715 100.694C211.618 101.831 211.937 102.965 212.611 103.886C213.26 104.712 214.227 105.231 214.935 106.009C215.614 106.769 216.022 107.732 216.095 108.749C216.142 108.13 216.064 107.509 215.864 106.921C215.665 106.334 215.349 105.792 214.935 105.33Z" fill="black"/>
<path opacity="0.1" d="M239.424 96.0554C239.242 96.808 238.919 97.5238 238.771 98.2825C238.684 98.7896 238.652 99.3046 238.676 99.8185C238.686 99.5257 238.718 99.2342 238.771 98.9461C238.919 98.1842 239.242 97.4715 239.424 96.7189C239.53 96.3038 239.564 95.8738 239.525 95.4471C239.506 95.6521 239.472 95.8553 239.424 96.0554Z" fill="black"/>
</g>
<path opacity="0.1" d="M155.249 272.366C171.811 272.366 185.238 270.214 185.238 267.558C185.238 264.903 171.811 262.751 155.249 262.751C138.686 262.751 125.259 264.903 125.259 267.558C125.259 270.214 138.686 272.366 155.249 272.366Z" fill="#587EEC"/>
<path d="M156.215 175.462H154.285V218.828H156.215V175.462Z" fill="#535461"/>
<path d="M168.341 218.696L168.221 220.65L168.049 223.415L167.978 224.564L167.809 227.328L167.735 228.477L167.562 231.242L165.617 262.597C165.533 263.946 164.936 265.213 163.949 266.138C162.963 267.064 161.659 267.58 160.305 267.58H150.192C148.838 267.58 147.535 267.064 146.549 266.138C145.562 265.212 144.967 263.946 144.883 262.597L142.947 231.221L142.774 228.456L142.704 227.307L142.531 224.542L142.461 223.393L142.288 220.629L142.165 218.675C142.144 218.299 142.2 217.922 142.329 217.569C142.459 217.215 142.659 216.891 142.919 216.618C143.178 216.344 143.491 216.126 143.837 215.978C144.184 215.829 144.558 215.753 144.935 215.753H165.62C165.996 215.757 166.368 215.837 166.711 215.989C167.055 216.141 167.364 216.361 167.619 216.637C167.874 216.913 168.069 217.238 168.194 217.592C168.318 217.946 168.368 218.322 168.341 218.696Z" fill="#3F3D56"/>
<path d="M168.221 220.65L168.049 223.406H142.448L142.276 220.65H168.221Z" fill="#9D9CB5"/>
<path d="M167.978 224.554L167.809 227.313H142.691L142.519 224.554H167.978Z" fill="#9D9CB5"/>
<path d="M167.735 228.465L167.565 231.221H142.934L142.762 228.465H167.735Z" fill="#9D9CB5"/>
<path d="M139.331 191.715C150.567 199.831 155.258 212.525 155.258 212.525C155.258 212.525 141.716 212.061 130.476 203.945C119.236 195.829 114.555 183.139 114.555 183.139C114.555 183.139 128.091 183.599 139.331 191.715Z" fill="#587EEC"/>
<path d="M114.546 183.139C114.546 183.139 128.605 190.926 133.114 197.374C137.622 203.822 155.258 212.525 155.258 212.525" stroke="#535461" stroke-width="2" stroke-miterlimit="10"/>
<path d="M146.585 175.367C152.7 179.781 155.258 186.69 155.258 186.69C155.258 186.69 147.887 186.438 141.768 182.024C135.65 177.609 133.098 170.697 133.098 170.697C133.098 170.697 140.466 170.949 146.585 175.367Z" fill="#587EEC"/>
<path d="M133.098 170.697C133.098 170.697 140.749 174.937 143.202 178.445C145.655 181.953 155.258 186.69 155.258 186.69" stroke="#535461" stroke-width="2" stroke-miterlimit="10"/>
<path d="M164.137 186.34C157.111 194.047 155.624 204.12 155.624 204.12C155.624 204.12 165.531 201.693 172.551 193.983C179.572 186.272 181.064 176.202 181.064 176.202C181.064 176.202 171.163 178.632 164.137 186.34Z" fill="#587EEC"/>
<path d="M181.071 176.205C181.071 176.205 171.917 184.106 169.591 189.55C167.264 194.993 155.624 204.12 155.624 204.12" stroke="#535461" stroke-width="2" stroke-miterlimit="10"/>
<path d="M422.068 183.627C422.068 183.627 416.986 158.394 418.931 155.255C418.931 155.255 419.002 152.336 418.885 148.616C418.885 148.475 418.885 148.334 418.885 148.189C419.228 148.417 419.584 148.622 419.953 148.804C421.745 149.723 423.803 149.988 425.77 149.553L424.231 147.842C423.862 147.434 423.477 146.991 423.397 146.451C423.317 145.91 423.539 145.428 423.73 144.945C425.192 141.259 425.268 136.623 422.452 133.81C420.073 131.444 419.495 128.391 416.912 126.231C415.026 124.649 413.989 122.33 413.01 120.087C412.182 118.192 411.348 116.281 410.874 114.272C410.505 112.702 410.357 111.077 409.849 109.544C409.341 108.011 408.39 106.522 406.904 105.836C406.374 105.594 405.787 105.456 405.303 105.133C404.669 104.706 404.288 104.012 403.829 103.404C401.499 100.332 393.697 102.141 390.004 103.388C389 103.702 388.07 104.216 387.271 104.9L387.305 104.844C387.333 104.798 387.366 104.752 387.397 104.706C386.993 105.032 386.644 105.421 386.363 105.858C385.825 106.709 385.6 107.701 385.15 108.623C384.609 109.713 381.596 112.758 382.891 113.983C382.982 114.066 383.086 114.132 383.199 114.18C383.686 114.382 384.221 114.435 384.738 114.333L384.683 114.466C384.24 115.547 384.013 116.704 384.015 117.872C384.015 122.92 388.185 127.011 393.334 127.011C394.302 127.012 395.264 126.864 396.187 126.572C396.209 126.689 396.227 126.806 396.249 126.922C396.249 126.968 396.264 127.014 396.27 127.06L396.107 127.288C396.099 127.274 396.09 127.26 396.079 127.248L391.247 133.988C390.509 134.507 386.255 137.579 386.015 139.883C385.763 142.405 385.511 145.357 385.511 145.357L385.477 145.99C385.266 146.166 385.019 146.294 384.753 146.366C384.487 146.437 384.209 146.451 383.938 146.404C382.43 146.159 382.43 151.934 382.43 151.934C382.43 151.934 381.426 152.856 380.737 152.057C380.048 151.258 378.226 153.964 378.226 153.964L366.807 154.456L366.546 154.471L365.93 152.57C365.864 152.369 365.721 152.203 365.533 152.107C365.344 152.011 365.125 151.993 364.924 152.057C364.876 152.072 364.83 152.092 364.785 152.115L364.742 152.14L364.662 152.195L364.622 152.232C364.6 152.252 364.58 152.273 364.561 152.296L364.524 152.339L364.505 152.358C364.434 152.456 364.387 152.569 364.368 152.689C364.349 152.808 364.358 152.931 364.394 153.046L364.924 154.677C362.72 155.12 360.467 156.367 362.305 159.801L352.991 158.084L356.005 160.609L371.559 163.813C371.353 164.182 371.489 164.716 372.132 165.469C374.902 168.716 379.949 169.598 381.98 169.825C382.517 171.023 383.187 172.156 383.978 173.204L383.802 176.439C383.802 176.439 378.66 201.094 377.718 202.344C378.193 201.807 378.628 201.235 379.02 200.633C377.527 205.699 375.44 212.632 374.892 213.671C374.012 215.329 373.197 222.042 374.2 222.472C374.508 222.604 375.388 222.539 376.644 222.444V223L376.588 244.07C376.588 244.07 376.841 256.994 376.148 258.226C375.456 259.458 375.271 262.041 375.271 262.041C375.271 262.041 372.501 267.138 370.307 269.187C370.292 269.203 370.275 269.217 370.257 269.23L370.19 268.75C370.19 268.75 367.552 272.074 361.717 271.887C361.717 271.887 358.205 274.166 363.413 274.289C368.62 274.412 375.271 274.105 375.271 274.105C375.271 274.105 379.915 267.039 383.806 267.961V273.315H384.997V267.875C385.549 267.512 386.022 267.041 386.386 266.49C386.751 265.939 386.999 265.32 387.117 264.671C387.219 264.001 387.144 263.317 386.9 262.685C386.657 262.053 386.252 261.496 385.726 261.067C385.49 260.854 385.3 260.595 385.17 260.305C385.039 260.015 384.969 259.702 384.966 259.384L384.923 259.421C384.923 259.313 384.895 259.203 384.883 259.089C384.541 256.324 384.113 250.62 385.624 246.399C387.696 240.611 388.324 232.551 386.816 227.752C386.329 226.219 385.929 224.659 385.618 223.08C385.581 222.88 385.548 222.69 385.517 222.512C386.548 222.651 387.568 222.856 388.573 223.126C392.066 224.088 399.708 224.266 406.233 224.213C406.248 224.392 406.267 224.579 406.288 224.766C406.405 226.069 406.648 227.357 407.015 228.612C407.833 231.07 408.209 241.905 408.209 241.905C408.209 241.905 409.264 250.813 408.689 254.438C408.381 256.453 408.073 258.478 407.898 260.511V260.551C407.898 260.551 406.168 265.466 404.903 268.136C404.872 268.204 404.839 268.271 404.808 268.336C404.471 268.366 404.139 268.44 403.82 268.554C403.82 268.554 402.124 271.933 400.434 272.492C398.745 273.051 399.305 274.891 403.13 274.215C406.956 273.54 412.733 272.987 412.733 272.987L412.982 269.54L414.158 268.071L413.85 271.509L415.103 271.263L414.937 267.082L416.86 264.68C416.86 264.68 419.184 262.616 415.731 258.555V258.644C415.694 258.585 415.66 258.524 415.62 258.466V258.447C415.047 257.562 414.592 255.913 415.426 252.985C416.934 247.695 417.811 242.894 417.811 242.894C417.811 242.894 421.178 230.032 417.131 223.946H417.309C416.895 223.09 416.602 222.18 416.439 221.243C416.418 221.132 416.4 221.019 416.383 220.902C419.378 220.73 422.317 220.189 424.714 219.022C424.705 219.01 423.262 188.487 422.068 183.627ZM384.049 162.339V162.4L383.433 162.431L384.049 162.339ZM381.937 162.63C381.836 162.653 381.741 162.698 381.66 162.762C381.396 163.136 381.23 163.57 381.177 164.025L380.217 163.81C380.217 163.81 379.543 163.666 378.573 163.503L378.115 163.042C379.377 162.938 380.688 162.784 381.937 162.63Z" fill="url(#paint1_linear_294_25)"/>
<path d="M413.709 267.125L413.343 271.478L414.571 271.233L414.386 266.511L413.709 267.125Z" fill="#1D2366"/>
<path d="M385.692 246.457C384.212 250.666 384.63 256.346 384.963 259.104C385.086 260.124 385.2 260.745 385.2 260.745C385.2 260.745 382.987 265.777 382.802 265.967C382.617 266.158 376.29 270.013 376.29 270.013L371.867 272.59C371.867 272.59 367.38 270.627 369.531 269.951C369.971 269.775 370.366 269.506 370.691 269.162C372.846 267.119 375.551 262.041 375.551 262.041C375.551 262.041 375.736 259.464 376.413 258.238C377.09 257.012 376.844 244.132 376.844 244.132L376.896 223.135V220.398L385.313 220.459C385.367 221.389 385.488 222.313 385.677 223.224C385.979 224.797 386.37 226.352 386.849 227.881C388.333 232.67 387.717 240.691 385.692 246.457Z" fill="#FFB0B1"/>
<path opacity="0.1" d="M385.2 260.745C385.2 260.745 382.987 265.777 382.802 265.967C382.617 266.158 376.29 270.013 376.29 270.013L371.867 272.59C371.867 272.59 367.38 270.627 369.531 269.952C369.971 269.776 370.366 269.506 370.691 269.162L370.882 270.505L372.356 270.443L384.975 259.111C385.086 260.124 385.2 260.745 385.2 260.745Z" fill="black"/>
<path d="M385.046 259.396L372.356 270.805L370.882 270.867L370.574 268.717C370.574 268.717 367.995 272.028 362.265 271.844C362.265 271.844 358.824 274.114 363.924 274.237C369.023 274.36 375.536 274.052 375.536 274.052C375.536 274.052 380.085 266.987 383.892 267.909V273.245H385.061V267.859C385.605 267.494 386.069 267.023 386.426 266.474C386.782 265.925 387.024 265.309 387.136 264.665C387.237 264.001 387.165 263.322 386.928 262.693C386.69 262.065 386.294 261.508 385.778 261.077C385.548 260.861 385.364 260.601 385.238 260.312C385.112 260.023 385.047 259.711 385.046 259.396Z" fill="#1D2366"/>
<path d="M414.878 253.019C414.06 255.937 414.506 257.581 415.066 258.462V258.481C415.784 259.569 416.284 260.787 416.537 262.066L416.586 262.342L410.813 270.744L407.679 271.973C407.679 271.973 402.641 270.256 403.562 269.764C403.792 269.644 404.152 269.005 404.565 268.124C405.796 265.466 407.495 260.564 407.495 260.564V260.524C407.673 258.499 407.956 256.481 408.27 254.472C408.834 250.856 407.799 241.982 407.799 241.982C407.799 241.982 407.43 231.19 406.63 228.735C406.269 227.487 406.029 226.208 405.913 224.914C405.747 223.378 405.71 222.112 405.71 222.112C405.71 222.112 409.028 217.504 415.109 222.481C415.595 222.878 416.023 223.341 416.38 223.857C420.581 229.823 417.199 242.965 417.199 242.965C417.199 242.965 416.352 247.744 414.878 253.019Z" fill="#FFB0B1"/>
<path opacity="0.1" d="M416.596 262.342L410.822 270.744L407.689 271.973C407.689 271.973 402.651 270.256 403.571 269.764C403.802 269.644 404.162 269.005 404.574 268.124C406.707 268.105 407.812 270.133 407.812 270.133L410.514 269.703C410.514 269.703 414.078 262.711 414.878 262.284C415.678 261.857 415.001 259.092 415.001 259.092V258.389C415.023 258.413 415.041 258.441 415.066 258.465V258.484C415.784 259.572 416.284 260.79 416.537 262.069L416.596 262.342Z" fill="black"/>
<path d="M407.996 270.314C407.996 270.314 406.457 267.494 403.509 268.535C403.509 268.535 401.85 271.914 400.191 272.461C398.532 273.008 399.086 274.851 402.835 274.178C406.584 273.506 412.234 272.95 412.234 272.95L412.481 269.512L416.291 264.668C416.291 264.668 418.562 262.613 415.183 258.567V259.27C415.183 259.27 415.86 262.035 415.06 262.462C414.259 262.889 410.708 269.884 410.708 269.884L407.996 270.314Z" fill="#1D2366"/>
<path opacity="0.1" d="M385.323 220.453C385.376 221.383 385.497 222.307 385.686 223.218C382.221 222.711 379.004 222.963 376.896 223.129V220.392L385.323 220.453Z" fill="black"/>
<path opacity="0.1" d="M416.722 224.622C416.722 224.622 411.797 224.862 405.925 224.911C405.759 223.375 405.722 222.109 405.722 222.109C405.722 222.109 409.04 217.501 415.121 222.478C415.608 222.875 416.035 223.338 416.392 223.854C416.488 224.116 416.598 224.372 416.722 224.622Z" fill="black"/>
<path d="M416.722 224.069C416.722 224.069 395.153 225.11 388.579 223.27C382.005 221.43 375.49 223.024 374.508 222.597C373.526 222.17 374.323 215.483 375.185 213.827C376.047 212.171 380.774 195.426 380.774 195.426L385.323 171.754L390.115 170.436L390.453 170.341L398.803 168.043L404.922 166.356C404.922 166.356 417.088 213.766 416.045 217.261C415.666 218.6 415.605 220.008 415.866 221.375C416.026 222.308 416.313 223.215 416.722 224.069Z" fill="#1D2366"/>
<path d="M369.467 155.565C369.467 155.565 365.158 160.173 368.42 162.741C371.683 165.309 373.828 162.987 373.828 162.987L369.467 155.565Z" fill="#C7DAF5"/>
<path opacity="0.1" d="M369.467 155.565C369.467 155.565 365.158 160.173 368.42 162.741C371.683 165.309 373.828 162.987 373.828 162.987L369.467 155.565Z" fill="black"/>
<path d="M404.279 125.269C404.279 125.269 403.774 125.749 403.014 126.455C401.93 127.466 400.327 128.944 398.905 130.181C396.935 131.893 395.31 133.149 395.892 132.077C396.473 131.005 396.363 129.137 396.073 127.389C396.052 127.272 396.033 127.156 396.012 127.042C395.772 125.758 395.455 124.49 395.061 123.245C395.061 123.245 398.243 119.141 400.004 117.522C400.659 116.908 401.118 116.656 401.145 117.083C401.176 117.657 401.607 118.926 402.143 120.271C402.158 120.314 402.173 120.354 402.192 120.397C402.549 121.319 402.952 122.265 403.306 123.082C403.848 124.336 404.279 125.269 404.279 125.269Z" fill="#FFB0B1"/>
<path opacity="0.1" d="M402.192 120.397C401.893 122.003 401.167 123.499 400.091 124.729C399.015 125.959 397.627 126.877 396.073 127.389C395.829 125.987 395.49 124.602 395.061 123.245C395.061 123.245 401.053 115.519 401.145 117.083C401.167 117.676 401.635 118.99 402.192 120.397Z" fill="black"/>
<path opacity="0.1" d="M395.476 129.453L396.252 128.363C396.252 128.363 396.766 131.49 398.656 130.111C400.545 128.732 400.638 140.491 400.638 140.491L398.609 170.759L383.953 169.883L384.369 155.258L386.028 147.885L390.13 137.167L392.571 133.625L395.476 129.453Z" fill="black"/>
<path d="M400.637 140.678L398.791 168.046L398.597 170.946L390.426 170.458L390.118 170.439L383.962 170.071L384.378 155.442L386.037 148.069L390.139 137.351L392.58 133.809L395.485 129.622L396.261 128.535C396.261 128.535 396.775 131.662 398.665 130.283L398.705 130.255C400.551 129.088 400.637 140.678 400.637 140.678Z" fill="#1D2366"/>
<path d="M386.243 145.507C386.243 145.507 385.508 147.043 384.03 146.795C382.553 146.546 382.556 152.324 382.556 152.324C382.556 152.324 381.574 153.246 380.897 152.447C380.22 151.648 378.435 154.348 378.435 154.348L367.25 154.84C367.25 154.84 372.227 157.11 371.252 163.979C371.252 163.979 388.148 162.935 388.702 161.34C389.256 159.746 386.243 145.507 386.243 145.507Z" fill="white"/>
<path opacity="0.03" d="M386.243 145.507C386.243 145.507 385.508 147.043 384.03 146.795C382.553 146.546 382.556 152.324 382.556 152.324C382.556 152.324 381.574 153.246 380.897 152.447C380.22 151.648 378.435 154.348 378.435 154.348L367.25 154.84C367.25 154.84 372.227 157.11 371.252 163.979C371.252 163.979 388.148 162.935 388.702 161.34C389.256 159.746 386.243 145.507 386.243 145.507Z" fill="black"/>
<path d="M353.74 158.449L356.688 160.962L380.959 166.053L377.949 162.987L353.74 158.449Z" fill="white"/>
<path d="M395.522 130.421C395.119 131.035 393.965 134.181 393.002 136.927C392.198 139.216 391.527 141.228 391.527 141.228C391.527 141.228 389.961 151.409 389.161 153.249C388.36 155.089 388.794 162.265 388.794 162.265L385.812 179.987C385.812 179.987 384.461 189.126 382.374 194.585C380.315 199.957 378.022 202.476 377.952 202.556C378.875 201.309 383.907 176.752 383.907 176.752L385.569 145.781C385.569 145.781 385.812 142.838 386.058 140.322C386.305 137.806 391.29 134.372 391.29 134.372L396.098 127.549C396.581 128.194 396.258 129.318 395.522 130.421Z" fill="white"/>
<path d="M382.987 170.224C382.987 170.224 375.908 169.917 372.48 165.807C369.051 161.697 380.405 164.166 380.405 164.166L383.356 164.842L382.987 170.224Z" fill="#FFB0B1"/>
<path opacity="0.1" d="M416.045 217.265C415.666 218.603 415.605 220.012 415.866 221.378C408.144 221.925 399.884 219.842 399.884 219.842C398.345 221.255 394.291 223.338 394.291 223.338L392.082 195.998C390.669 192.311 390.115 172.998 390.115 172.998C390.115 172.998 390.241 171.987 390.423 170.473C390.423 170.436 390.423 170.396 390.438 170.359C390.989 166.129 392.082 158.188 392.617 157.116C393.356 155.642 390.346 151.719 390.346 151.719L391.715 140.061L391.881 138.654C394.768 137.367 396.981 133.256 396.981 133.256L398.68 130.286C400.527 129.103 400.622 140.694 400.622 140.694L398.776 168.061L404.894 166.375C404.894 166.375 417.088 213.769 416.045 217.265Z" fill="black"/>
<path d="M423.97 219.154C415.552 223.326 400.253 219.461 400.253 219.461C398.714 220.874 394.661 222.957 394.661 222.957L392.448 195.617C391.038 191.931 390.484 172.617 390.484 172.617C390.484 172.617 392.263 158.207 393.002 156.735C393.217 156.305 393.113 155.666 392.857 154.978C391.601 151.703 391.139 148.178 391.509 144.69L392.1 139.68L392.263 138.276C395.153 136.986 397.366 132.876 397.366 132.876L398.905 130.185L401.736 125.227L403.078 122.88L403.306 123.085L405.045 124.658C405.045 124.658 405.783 125.273 406.891 126.194C409.301 128.222 413.465 131.791 415.614 133.975C417.503 135.898 418.1 143.379 418.273 149.01C418.387 152.717 418.319 155.623 418.319 155.623C416.414 158.754 421.397 183.885 421.397 183.885C422.557 188.742 423.97 219.154 423.97 219.154Z" fill="white"/>
<path opacity="0.03" d="M407.812 132.814C407.812 132.814 402.035 143.79 402.706 147.962C403.377 152.134 405.285 156.855 404.365 157.958C404.048 158.376 403.64 158.715 403.17 158.949C402.701 159.183 402.184 159.305 401.659 159.307C400.736 159.368 398.274 161.085 398.274 161.27C398.274 161.454 395.999 161.454 393.965 162.314C391.931 163.174 388.927 163.663 388.927 163.663C388.927 163.663 383.079 163.478 382.534 164.031C381.99 164.584 381.43 167.893 382.596 170.532C383.762 173.17 385.058 175.139 386.037 175.499C387.016 175.858 393.226 173.782 398.265 173.29C403.303 172.799 408.772 168.814 408.772 168.814C408.772 168.814 414.795 166.664 415.851 163.048C416.906 159.433 414.561 139.56 414.561 139.56C414.561 139.56 412.788 130.298 407.812 132.814Z" fill="black"/>
<path opacity="0.03" d="M407.073 131.893C407.073 131.893 401.296 142.872 401.973 147.04C402.651 151.209 404.553 155.934 403.629 157.039C403.314 157.458 402.906 157.797 402.437 158.031C401.968 158.265 401.451 158.387 400.927 158.388C400.004 158.45 397.542 160.167 397.542 160.351C397.542 160.535 395.267 160.535 393.233 161.392C391.198 162.249 388.194 162.741 388.194 162.741C388.194 162.741 382.347 162.557 381.805 163.11C381.263 163.663 380.697 166.974 381.867 169.61C383.036 172.246 384.329 174.218 385.308 174.577C386.286 174.937 392.497 172.86 397.535 172.372C402.574 171.883 408.043 167.893 408.043 167.893C408.043 167.893 414.063 165.742 415.106 162.13C416.149 158.517 413.816 138.639 413.816 138.639C413.816 138.639 412.05 129.38 407.073 131.893Z" fill="black"/>
<path d="M407.63 132.261C407.63 132.261 401.853 143.24 402.53 147.409C403.207 151.578 405.109 156.302 404.189 157.405C403.874 157.824 403.466 158.165 402.996 158.399C402.527 158.634 402.009 158.756 401.484 158.757C400.561 158.818 398.098 160.535 398.098 160.717C398.098 160.898 395.827 160.901 393.79 161.761C391.752 162.621 388.751 163.11 388.751 163.11C388.751 163.11 382.904 162.925 382.359 163.478C381.814 164.031 381.254 167.343 382.421 169.979C383.587 172.614 384.883 174.586 385.861 174.946C386.84 175.305 393.051 173.229 398.089 172.737C403.127 172.246 408.597 168.261 408.597 168.261C408.597 168.261 414.62 166.111 415.675 162.495C416.731 158.88 414.401 139.007 414.401 139.007C414.401 139.007 412.604 129.761 407.63 132.261Z" fill="white"/>
<path opacity="0.1" d="M407.504 161.709C407.504 161.709 402.887 160.787 404.494 162.323C406.101 163.859 406.091 165.205 408.058 165.143C410.025 165.082 407.504 161.709 407.504 161.709Z" fill="black"/>
<path opacity="0.1" d="M415.306 194.757C415.306 194.757 413.219 196.167 417.211 199.417C421.203 202.667 415.306 194.757 415.306 194.757Z" fill="black"/>
<path opacity="0.1" d="M411.324 206.347C411.324 206.531 410.585 213.105 413.349 214.749C416.112 216.392 411.324 206.347 411.324 206.347Z" fill="black"/>
<path d="M367.441 154.825C365.213 154.901 360.4 155.58 362.896 160.228C365.102 164.341 368.811 161.592 370.898 159.506C370.389 157.562 369.151 155.886 367.441 154.825Z" fill="#FFB0B1"/>
<path d="M370.925 159.469L371.018 159.374L370.925 159.469Z" fill="#FFB0B1"/>
<path opacity="0.1" d="M406.892 126.381C404.528 127.994 402.546 129.355 402.158 129.638C401.099 130.421 399.08 135.02 397.778 137.367C396.741 139.256 393.371 139.741 392.1 139.861L392.263 138.457C395.153 137.167 397.366 133.057 397.366 133.057L403.078 123.061L405.045 124.845C405.045 124.845 405.784 125.46 406.892 126.381Z" fill="black"/>
<path d="M406.892 126.197C404.528 127.81 402.546 129.171 402.158 129.456C401.099 130.237 399.08 134.835 397.778 137.182C396.741 139.072 393.371 139.557 392.1 139.677L392.263 138.273C395.153 136.983 397.366 132.872 397.366 132.872L403.078 122.876L405.045 124.655C405.045 124.655 405.784 125.263 406.892 126.197Z" fill="#DCE7FF"/>
<path d="M402.343 118.37C402.344 120.214 401.784 122.015 400.736 123.534C399.499 125.33 397.658 126.624 395.546 127.181C393.435 127.737 391.194 127.52 389.229 126.569C387.265 125.618 385.707 123.995 384.839 121.995C383.97 119.995 383.849 117.751 384.496 115.67C385.144 113.588 386.518 111.807 388.368 110.65C390.219 109.493 392.423 109.037 394.582 109.363C396.741 109.69 398.712 110.778 400.135 112.431C401.559 114.083 402.342 116.19 402.343 118.37Z" fill="#FFB0B1"/>
<path opacity="0.1" d="M418.273 149.012C417.023 148.245 416.005 147.154 415.327 145.854C414.813 144.841 414.472 143.67 413.595 142.951C412.804 142.306 411.748 142.15 410.763 141.861C407.525 140.906 404.811 137.956 404.709 134.59C404.66 133.005 405.156 131.422 404.931 129.853C404.803 128.964 404.449 128.123 403.903 127.411C403.632 127.07 403.334 126.75 403.014 126.455C402.583 126.05 402.13 125.656 401.736 125.226C401.488 124.96 401.271 124.666 401.09 124.351C400.944 124.093 400.825 123.82 400.736 123.537C400.12 121.657 400.681 119.427 400.004 117.525L399.967 117.421C399.711 116.745 399.191 116.069 398.468 116.017C397.744 115.965 397.126 116.564 396.436 116.831C394.993 117.39 393.436 116.438 392.232 115.467C391.029 114.496 389.672 113.387 388.142 113.602C387.129 113.747 386.329 114.435 385.397 114.791C385.186 114.872 384.969 114.935 384.747 114.978C385.537 113.014 386.986 111.385 388.848 110.372C390.71 109.358 392.867 109.024 394.949 109.426C397.031 109.827 398.908 110.94 400.257 112.573C401.606 114.206 402.344 116.256 402.343 118.373C402.344 119.012 402.277 119.649 402.143 120.274C402.158 120.317 402.173 120.357 402.192 120.4C402.549 121.322 402.952 122.268 403.306 123.085L405.045 124.658C405.045 124.658 405.783 125.272 406.891 126.194C409.301 128.222 413.465 131.791 415.614 133.975C417.503 135.904 418.094 143.382 418.273 149.012Z" fill="black"/>
<path d="M385.289 109.179C385.729 108.285 385.948 107.283 386.474 106.435C387.246 105.207 388.595 104.42 389.979 103.944C393.596 102.7 401.238 100.894 403.521 103.944C403.971 104.558 404.343 105.24 404.965 105.664C405.439 105.987 406.011 106.125 406.531 106.368C407.987 107.05 408.917 108.537 409.412 110.054C409.908 111.572 410.055 113.2 410.419 114.763C410.883 116.769 411.699 118.671 412.511 120.56C413.469 122.79 414.484 125.104 416.331 126.679C418.851 128.83 419.409 131.874 421.748 134.233C424.518 137.035 424.428 141.658 423 145.329C422.812 145.811 422.6 146.315 422.674 146.828C422.748 147.341 423.13 147.808 423.49 148.217L425.004 149.922C421.421 150.785 417.368 148.917 415.7 145.639C415.186 144.626 414.844 143.458 413.964 142.736C413.176 142.091 412.117 141.938 411.136 141.649C407.898 140.691 405.183 137.738 405.082 134.372C405.033 132.79 405.528 131.208 405.303 129.641C405.178 128.746 404.823 127.9 404.272 127.183C403.426 126.08 402.149 125.34 401.459 124.111C400.293 122.056 401.179 119.387 400.339 117.181C400.081 116.505 399.563 115.829 398.84 115.777C398.117 115.725 397.498 116.324 396.806 116.591C395.365 117.15 393.808 116.201 392.605 115.227C391.401 114.254 390.044 113.148 388.511 113.366C387.499 113.507 386.702 114.195 385.769 114.555C385.08 114.819 383.682 115.055 383.079 114.475C381.805 113.304 384.757 110.272 385.289 109.179Z" fill="#591D4B"/>
<path opacity="0.1" d="M416.555 144.626C416.038 143.612 415.7 142.445 414.82 141.726C414.032 141.081 412.973 140.924 411.988 140.635C408.753 139.68 406.039 136.728 405.934 133.361C405.885 131.779 406.381 130.194 406.159 128.627C406.03 127.738 405.675 126.898 405.128 126.185C404.278 125.082 403.001 124.342 402.315 123.113C401.148 121.061 402.035 118.391 401.192 116.183C400.936 115.51 400.416 114.834 399.696 114.779C398.976 114.724 398.351 115.329 397.661 115.596C396.221 116.155 394.661 115.203 393.46 114.232C392.26 113.261 390.897 112.152 389.367 112.367C388.354 112.512 387.554 113.2 386.625 113.556C385.935 113.82 384.535 114.06 383.932 113.479C382.664 112.251 385.615 109.225 386.145 108.137C386.585 107.24 386.803 106.242 387.333 105.394C387.36 105.348 387.391 105.302 387.422 105.256C387.026 105.583 386.684 105.971 386.409 106.405C385.883 107.253 385.664 108.248 385.224 109.148C384.692 110.235 381.74 113.271 383.012 114.49C383.627 115.074 385.012 114.834 385.701 114.57C386.625 114.211 387.431 113.522 388.444 113.381C389.983 113.163 391.337 114.272 392.537 115.243C393.737 116.213 395.307 117.166 396.741 116.607C397.431 116.339 398.034 115.737 398.772 115.793C399.511 115.848 400.004 116.521 400.271 117.196C401.112 119.402 400.225 122.072 401.392 124.127C402.081 125.334 403.358 126.09 404.205 127.199C404.755 127.915 405.111 128.762 405.236 129.656C405.46 131.223 404.965 132.805 405.014 134.387C405.116 137.766 407.83 140.706 411.068 141.664C412.044 141.953 413.108 142.107 413.896 142.752C414.78 143.474 415.127 144.641 415.632 145.655C417.3 148.933 421.354 150.8 424.936 149.937L424.222 149.132C421.117 149.178 417.974 147.415 416.555 144.626Z" fill="black"/>
<path opacity="0.1" d="M395.338 130.605C394.935 131.22 393.78 134.366 392.817 137.112C391.915 136.762 391.097 134.528 391.097 134.528L395.904 127.703C396.396 128.378 396.073 129.5 395.338 130.605Z" fill="black"/>
<path d="M395.523 130.421C395.119 131.035 393.965 134.181 393.002 136.927C392.1 136.58 391.281 134.344 391.281 134.344L396.089 127.521C396.581 128.194 396.258 129.318 395.523 130.421Z" fill="#DCE7FF"/>
<path d="M367.571 161.804L364.905 153.415C364.874 153.316 364.862 153.213 364.871 153.11C364.879 153.007 364.908 152.907 364.955 152.816C365.003 152.724 365.068 152.643 365.147 152.576C365.226 152.51 365.318 152.46 365.416 152.428C365.615 152.367 365.829 152.386 366.014 152.481C366.198 152.577 366.337 152.741 366.401 152.938L369.066 161.319L368.802 163.073L367.571 161.804Z" fill="#BE8B87"/>
<path opacity="0.1" d="M365.158 152.677C365.357 152.615 365.572 152.633 365.757 152.729C365.943 152.824 366.082 152.989 366.146 153.187L368.811 161.567L368.611 162.882L368.805 163.085L369.07 161.331L366.389 152.951C366.325 152.753 366.186 152.589 366.002 152.493C365.817 152.398 365.602 152.379 365.404 152.441C365.237 152.495 365.093 152.603 364.995 152.748C365.047 152.72 365.102 152.696 365.158 152.677Z" fill="white"/>
<path d="M367.571 161.804L369.066 161.331L368.848 162.769L368.802 163.085L368.365 162.63L367.571 161.804Z" fill="#EFC8C4"/>
<path d="M368.365 162.63C368.391 162.598 368.423 162.57 368.46 162.551C368.482 162.537 368.507 162.53 368.533 162.53C368.558 162.53 368.583 162.537 368.605 162.551C368.626 162.576 368.643 162.604 368.657 162.633C368.677 162.667 368.705 162.696 368.738 162.718C368.771 162.74 368.809 162.754 368.848 162.759L368.802 163.067L368.365 162.63Z" fill="#727A9C"/>
<path d="M364.89 156.394C364.89 156.394 370.236 156.364 368.977 158.634C367.718 160.904 365.752 161.177 365.752 161.177L364.89 156.394Z" fill="#FFB0B1"/>
<path d="M331.641 54.5135H331.411C322.227 54.5135 314.105 59.3641 309.433 66.5217C304.761 59.3641 296.639 54.5135 287.455 54.5135H287.224C280.332 54.5791 273.744 57.3569 268.892 62.2434C264.04 67.1298 261.316 73.73 261.313 80.6096C261.313 89.1527 265.061 101.275 272.371 111.249C286.297 130.255 309.433 146.884 309.433 146.884C309.433 146.884 332.568 130.258 346.491 111.249C353.804 101.275 357.55 89.1527 357.55 80.6096C357.546 73.7305 354.823 67.1308 349.971 62.2445C345.12 57.3581 338.533 54.5799 331.641 54.5135ZM328.339 112.711C327.293 112.707 326.273 112.388 325.412 111.795C324.551 111.201 323.891 110.362 323.516 109.388H318.026C317.664 109.385 317.312 109.27 317.019 109.059C316.726 108.847 316.507 108.55 316.391 108.208L314.705 103.136L309.368 121.749C309.264 122.107 309.047 122.422 308.748 122.647C308.449 122.871 308.086 122.993 307.712 122.993H307.604C307.215 122.974 306.843 122.822 306.552 122.563C306.26 122.304 306.067 121.952 306.004 121.568L300.504 88.5506L296.485 108.088C296.393 108.459 296.178 108.789 295.877 109.024C295.575 109.26 295.203 109.388 294.82 109.388H287.085C286.854 109.397 286.622 109.36 286.405 109.278C286.188 109.197 285.99 109.072 285.822 108.911C285.655 108.751 285.521 108.559 285.43 108.346C285.339 108.133 285.292 107.903 285.292 107.672C285.292 107.44 285.339 107.211 285.43 106.998C285.521 106.785 285.655 106.592 285.822 106.432C285.99 106.272 286.188 106.147 286.405 106.065C286.622 105.983 286.854 105.946 287.085 105.956H293.465L299.159 79.6881C299.253 79.2997 299.478 78.9558 299.798 78.7151C300.117 78.4745 300.51 78.352 300.91 78.3687C301.31 78.3854 301.692 78.5402 301.99 78.8066C302.288 79.073 302.484 79.4346 302.545 79.8294L308.162 113.51L312.944 96.8571C313.044 96.5064 313.254 96.1972 313.545 95.9757C313.835 95.7543 314.189 95.6324 314.554 95.6283H314.588C314.95 95.6284 315.302 95.7425 315.595 95.9544C315.888 96.1662 316.106 96.4649 316.219 96.8079L319.269 105.965H323.449C323.746 105.064 324.287 104.263 325.011 103.649C325.736 103.035 326.617 102.633 327.556 102.488C328.495 102.342 329.456 102.458 330.334 102.823C331.211 103.188 331.97 103.788 332.527 104.557C333.084 105.325 333.418 106.233 333.491 107.178C333.564 108.124 333.374 109.072 332.942 109.917C332.51 110.762 331.852 111.471 331.041 111.966C330.231 112.461 329.299 112.724 328.348 112.724L328.339 112.711Z" fill="#99B0F3"/>
</g>
<g filter="url(#filter1_d_294_25)">
<circle cx="284.466" cy="159.205" r="20.8539" fill="#587EEC"/>
</g>
<path d="M291.418 159.205L280.991 165.225L280.991 153.185L291.418 159.205Z" fill="white"/>
<defs>
<filter id="filter0_d_294_25" x="0" y="0" width="568.933" height="326.41" filterUnits="userSpaceOnUse" color-interpolation-filters="sRGB">
<feFlood flood-opacity="0" result="BackgroundImageFix"/>
<feColorMatrix in="SourceAlpha" type="matrix" values="0 0 0 0 0 0 0 0 0 0 0 0 0 0 0 0 0 0 127 0" result="hardAlpha"/>
<feOffset dy="4"/>
<feGaussianBlur stdDeviation="9"/>
<feColorMatrix type="matrix" values="0 0 0 0 0.345098 0 0 0 0 0.494118 0 0 0 0 0.92549 0 0 0 0.18 0"/>
<feBlend mode="normal" in2="BackgroundImageFix" result="effect1_dropShadow_294_25"/>
<feBlend mode="normal" in="SourceGraphic" in2="effect1_dropShadow_294_25" result="shape"/>
</filter>
<filter id="filter1_d_294_25" x="261.613" y="138.351" width="45.7078" height="45.7078" filterUnits="userSpaceOnUse" color-interpolation-filters="sRGB">
<feFlood flood-opacity="0" result="BackgroundImageFix"/>
<feColorMatrix in="SourceAlpha" type="matrix" values="0 0 0 0 0 0 0 0 0 0 0 0 0 0 0 0 0 0 127 0" result="hardAlpha"/>
<feOffset dy="2"/>
<feGaussianBlur stdDeviation="1"/>
<feColorMatrix type="matrix" values="0 0 0 0 0 0 0 0 0 0 0 0 0 0 0 0 0 0 0.16 0"/>
<feBlend mode="normal" in2="BackgroundImageFix" result="effect1_dropShadow_294_25"/>
<feBlend mode="normal" in="SourceGraphic" in2="effect1_dropShadow_294_25" result="shape"/>
</filter>
<linearGradient id="paint0_linear_294_25" x1="224.066" y1="276.753" x2="224.066" y2="87.7242" gradientUnits="userSpaceOnUse">
<stop stop-color="#808080" stop-opacity="0.25"/>
<stop offset="0.54" stop-color="#808080" stop-opacity="0.12"/>
<stop offset="1" stop-color="#808080" stop-opacity="0.1"/>
</linearGradient>
<linearGradient id="paint1_linear_294_25" x1="68813.7" y1="142663" x2="68813.7" y2="45633.3" gradientUnits="userSpaceOnUse">
<stop stop-color="#808080" stop-opacity="0.25"/>
<stop offset="0.54" stop-color="#808080" stop-opacity="0.12"/>
<stop offset="1" stop-color="#808080" stop-opacity="0.1"/>
</linearGradient>
</defs>
</svg>
