<svg width="149" height="43" viewBox="0 0 149 43" fill="none" xmlns="http://www.w3.org/2000/svg">
<path d="M57.0722 27.3245C55.9322 27.3245 54.9482 27.1385 54.1202 26.7665C53.3042 26.3825 52.6682 25.8305 52.2122 25.1105C51.7682 24.3785 51.5222 23.4905 51.4742 22.4465C51.4622 21.9305 51.4562 21.3845 51.4562 20.8085C51.4562 20.2205 51.4622 19.6625 51.4742 19.1345C51.5222 18.1145 51.7742 17.2505 52.2302 16.5425C52.6862 15.8345 53.3282 15.2945 54.1562 14.9225C54.9842 14.5505 55.9562 14.3645 57.0722 14.3645C57.9722 14.3645 58.7702 14.4785 59.4662 14.7065C60.1622 14.9225 60.7442 15.2165 61.2122 15.5885C61.6922 15.9605 62.0522 16.3685 62.2922 16.8125C62.5442 17.2565 62.6762 17.6945 62.6882 18.1265C62.7002 18.2345 62.6642 18.3245 62.5802 18.3965C62.5082 18.4685 62.4182 18.5045 62.3102 18.5045H59.6822C59.5502 18.5045 59.4482 18.4865 59.3762 18.4505C59.3162 18.4025 59.2622 18.3365 59.2142 18.2525C59.1302 18.0725 59.0042 17.8865 58.8362 17.6945C58.6802 17.4905 58.4582 17.3165 58.1702 17.1725C57.8942 17.0285 57.5282 16.9565 57.0722 16.9565C56.3882 16.9565 55.8482 17.1365 55.4522 17.4965C55.0682 17.8565 54.8582 18.4325 54.8222 19.2245C54.7862 20.2565 54.7862 21.3005 54.8222 22.3565C54.8582 23.1965 55.0802 23.8025 55.4882 24.1745C55.8962 24.5465 56.4362 24.7325 57.1082 24.7325C57.5642 24.7325 57.9662 24.6545 58.3142 24.4985C58.6742 24.3425 58.9562 24.1025 59.1602 23.7785C59.3642 23.4425 59.4662 23.0165 59.4662 22.5005V22.1585H57.7742C57.6422 22.1585 57.5282 22.1165 57.4322 22.0325C57.3482 21.9365 57.3062 21.8225 57.3062 21.6905V20.3585C57.3062 20.2265 57.3482 20.1185 57.4322 20.0345C57.5282 19.9385 57.6422 19.8905 57.7742 19.8905H62.3102C62.4422 19.8905 62.5502 19.9385 62.6342 20.0345C62.7182 20.1185 62.7602 20.2265 62.7602 20.3585V22.4105C62.7602 23.4425 62.5262 24.3245 62.0582 25.0565C61.5902 25.7885 60.9242 26.3525 60.0602 26.7485C59.2082 27.1325 58.2122 27.3245 57.0722 27.3245ZM69.0553 27.3245C68.0473 27.3245 67.1953 27.1625 66.4993 26.8385C65.8153 26.5145 65.2873 26.0525 64.9153 25.4525C64.5553 24.8405 64.3513 24.1145 64.3033 23.2745C64.2913 23.0345 64.2853 22.7645 64.2853 22.4645C64.2853 22.1525 64.2913 21.8825 64.3033 21.6545C64.3513 20.8025 64.5673 20.0765 64.9513 19.4765C65.3353 18.8765 65.8693 18.4145 66.5533 18.0905C67.2493 17.7665 68.0833 17.6045 69.0553 17.6045C70.0393 17.6045 70.8733 17.7665 71.5573 18.0905C72.2533 18.4145 72.7933 18.8765 73.1773 19.4765C73.5613 20.0765 73.7773 20.8025 73.8253 21.6545C73.8373 21.8825 73.8433 22.1525 73.8433 22.4645C73.8433 22.7645 73.8373 23.0345 73.8253 23.2745C73.7773 24.1145 73.5673 24.8405 73.1953 25.4525C72.8353 26.0525 72.3073 26.5145 71.6113 26.8385C70.9273 27.1625 70.0753 27.3245 69.0553 27.3245ZM69.0553 25.1285C69.5953 25.1285 69.9853 24.9665 70.2253 24.6425C70.4773 24.3185 70.6213 23.8325 70.6573 23.1845C70.6693 23.0045 70.6753 22.7645 70.6753 22.4645C70.6753 22.1645 70.6693 21.9245 70.6573 21.7445C70.6213 21.1085 70.4773 20.6285 70.2253 20.3045C69.9853 19.9685 69.5953 19.8005 69.0553 19.8005C68.5273 19.8005 68.1373 19.9685 67.8853 20.3045C67.6333 20.6285 67.4953 21.1085 67.4713 21.7445C67.4593 21.9245 67.4533 22.1645 67.4533 22.4645C67.4533 22.7645 67.4593 23.0045 67.4713 23.1845C67.4953 23.8325 67.6333 24.3185 67.8853 24.6425C68.1373 24.9665 68.5273 25.1285 69.0553 25.1285Z" fill="black"/>
<path d="M80.9776 27.3245C79.8376 27.3245 78.8596 27.1385 78.0436 26.7665C77.2396 26.3945 76.6096 25.8485 76.1536 25.1285C75.7096 24.4085 75.4636 23.5145 75.4156 22.4465C75.4036 21.9545 75.3976 21.4265 75.3976 20.8625C75.3976 20.2985 75.4036 19.7585 75.4156 19.2425C75.4636 18.1985 75.7156 17.3165 76.1716 16.5965C76.6276 15.8645 77.2636 15.3125 78.0796 14.9405C78.8956 14.5565 79.8616 14.3645 80.9776 14.3645C81.7696 14.3645 82.5016 14.4665 83.1736 14.6705C83.8456 14.8625 84.4336 15.1505 84.9376 15.5345C85.4416 15.9065 85.8316 16.3625 86.1076 16.9025C86.3956 17.4305 86.5456 18.0305 86.5576 18.7025C86.5696 18.8105 86.5336 18.9005 86.4496 18.9725C86.3776 19.0445 86.2876 19.0805 86.1796 19.0805H83.7496C83.5936 19.0805 83.4736 19.0505 83.3896 18.9905C83.3056 18.9185 83.2336 18.7925 83.1736 18.6125C83.0056 17.9765 82.7296 17.5445 82.3456 17.3165C81.9736 17.0765 81.5116 16.9565 80.9596 16.9565C80.2996 16.9565 79.7776 17.1425 79.3936 17.5145C79.0096 17.8745 78.7996 18.4805 78.7636 19.3325C78.7276 20.3165 78.7276 21.3245 78.7636 22.3565C78.7996 23.2085 79.0096 23.8205 79.3936 24.1925C79.7776 24.5525 80.2996 24.7325 80.9596 24.7325C81.5116 24.7325 81.9796 24.6125 82.3636 24.3725C82.7476 24.1325 83.0176 23.7005 83.1736 23.0765C83.2216 22.8965 83.2876 22.7765 83.3716 22.7165C83.4676 22.6445 83.5936 22.6085 83.7496 22.6085H86.1796C86.2876 22.6085 86.3776 22.6445 86.4496 22.7165C86.5336 22.7885 86.5696 22.8785 86.5576 22.9865C86.5456 23.6585 86.3956 24.2645 86.1076 24.8045C85.8316 25.3325 85.4416 25.7885 84.9376 26.1725C84.4336 26.5445 83.8456 26.8325 83.1736 27.0365C82.5016 27.2285 81.7696 27.3245 80.9776 27.3245ZM92.6803 27.3245C91.6723 27.3245 90.8203 27.1625 90.1243 26.8385C89.4403 26.5145 88.9123 26.0525 88.5403 25.4525C88.1803 24.8405 87.9763 24.1145 87.9283 23.2745C87.9163 23.0345 87.9103 22.7645 87.9103 22.4645C87.9103 22.1525 87.9163 21.8825 87.9283 21.6545C87.9763 20.8025 88.1923 20.0765 88.5763 19.4765C88.9603 18.8765 89.4943 18.4145 90.1783 18.0905C90.8743 17.7665 91.7083 17.6045 92.6803 17.6045C93.6643 17.6045 94.4983 17.7665 95.1823 18.0905C95.8783 18.4145 96.4183 18.8765 96.8023 19.4765C97.1863 20.0765 97.4023 20.8025 97.4503 21.6545C97.4623 21.8825 97.4683 22.1525 97.4683 22.4645C97.4683 22.7645 97.4623 23.0345 97.4503 23.2745C97.4023 24.1145 97.1923 24.8405 96.8203 25.4525C96.4603 26.0525 95.9323 26.5145 95.2363 26.8385C94.5523 27.1625 93.7003 27.3245 92.6803 27.3245ZM92.6803 25.1285C93.2203 25.1285 93.6103 24.9665 93.8503 24.6425C94.1023 24.3185 94.2463 23.8325 94.2823 23.1845C94.2943 23.0045 94.3003 22.7645 94.3003 22.4645C94.3003 22.1645 94.2943 21.9245 94.2823 21.7445C94.2463 21.1085 94.1023 20.6285 93.8503 20.3045C93.6103 19.9685 93.2203 19.8005 92.6803 19.8005C92.1523 19.8005 91.7623 19.9685 91.5103 20.3045C91.2583 20.6285 91.1203 21.1085 91.0963 21.7445C91.0843 21.9245 91.0783 22.1645 91.0783 22.4645C91.0783 22.7645 91.0843 23.0045 91.0963 23.1845C91.1203 23.8325 91.2583 24.3185 91.5103 24.6425C91.7623 24.9665 92.1523 25.1285 92.6803 25.1285ZM99.6886 27.1445C99.5566 27.1445 99.4486 27.1025 99.3646 27.0185C99.2806 26.9345 99.2386 26.8265 99.2386 26.6945V18.2345C99.2386 18.1145 99.2806 18.0125 99.3646 17.9285C99.4486 17.8325 99.5566 17.7845 99.6886 17.7845H101.759C101.891 17.7845 101.999 17.8325 102.083 17.9285C102.167 18.0125 102.209 18.1145 102.209 18.2345V18.9545C102.533 18.5825 102.917 18.2945 103.361 18.0905C103.817 17.8865 104.327 17.7845 104.891 17.7845H105.683C105.803 17.7845 105.905 17.8265 105.989 17.9105C106.085 17.9945 106.133 18.1025 106.133 18.2345V20.0885C106.133 20.2085 106.085 20.3165 105.989 20.4125C105.905 20.4965 105.803 20.5385 105.683 20.5385H103.937C103.445 20.5385 103.061 20.6765 102.785 20.9525C102.521 21.2165 102.389 21.5945 102.389 22.0865V26.6945C102.389 26.8265 102.341 26.9345 102.245 27.0185C102.161 27.1025 102.053 27.1445 101.921 27.1445H99.6886ZM111.77 27.3245C110.762 27.3245 109.91 27.1625 109.214 26.8385C108.53 26.5145 108.002 26.0525 107.63 25.4525C107.27 24.8405 107.066 24.1145 107.018 23.2745C107.006 23.0345 107 22.7645 107 22.4645C107 22.1525 107.006 21.8825 107.018 21.6545C107.066 20.8025 107.282 20.0765 107.666 19.4765C108.05 18.8765 108.584 18.4145 109.268 18.0905C109.964 17.7665 110.798 17.6045 111.77 17.6045C112.754 17.6045 113.588 17.7665 114.272 18.0905C114.968 18.4145 115.508 18.8765 115.892 19.4765C116.276 20.0765 116.492 20.8025 116.54 21.6545C116.552 21.8825 116.558 22.1525 116.558 22.4645C116.558 22.7645 116.552 23.0345 116.54 23.2745C116.492 24.1145 116.282 24.8405 115.91 25.4525C115.55 26.0525 115.022 26.5145 114.326 26.8385C113.642 27.1625 112.79 27.3245 111.77 27.3245ZM111.77 25.1285C112.31 25.1285 112.7 24.9665 112.94 24.6425C113.192 24.3185 113.336 23.8325 113.372 23.1845C113.384 23.0045 113.39 22.7645 113.39 22.4645C113.39 22.1645 113.384 21.9245 113.372 21.7445C113.336 21.1085 113.192 20.6285 112.94 20.3045C112.7 19.9685 112.31 19.8005 111.77 19.8005C111.242 19.8005 110.852 19.9685 110.6 20.3045C110.348 20.6285 110.21 21.1085 110.186 21.7445C110.174 21.9245 110.168 22.1645 110.168 22.4645C110.168 22.7645 110.174 23.0045 110.186 23.1845C110.21 23.8325 110.348 24.3185 110.6 24.6425C110.852 24.9665 111.242 25.1285 111.77 25.1285ZM118.778 27.1445C118.646 27.1445 118.538 27.1025 118.454 27.0185C118.37 26.9345 118.328 26.8265 118.328 26.6945V18.2345C118.328 18.1025 118.37 17.9945 118.454 17.9105C118.538 17.8265 118.646 17.7845 118.778 17.7845H120.848C120.98 17.7845 121.088 17.8265 121.172 17.9105C121.256 17.9945 121.298 18.1025 121.298 18.2345V18.9185C121.61 18.5465 122.018 18.2345 122.522 17.9825C123.026 17.7305 123.62 17.6045 124.304 17.6045C125 17.6045 125.612 17.7605 126.14 18.0725C126.68 18.3845 127.1 18.8465 127.4 19.4585C127.712 20.0585 127.868 20.7965 127.868 21.6725V26.6945C127.868 26.8265 127.82 26.9345 127.724 27.0185C127.64 27.1025 127.538 27.1445 127.418 27.1445H125.15C125.03 27.1445 124.922 27.1025 124.826 27.0185C124.742 26.9345 124.7 26.8265 124.7 26.6945V21.7805C124.7 21.2165 124.562 20.7845 124.286 20.4845C124.022 20.1725 123.626 20.0165 123.098 20.0165C122.606 20.0165 122.21 20.1725 121.91 20.4845C121.622 20.7845 121.478 21.2165 121.478 21.7805V26.6945C121.478 26.8265 121.43 26.9345 121.334 27.0185C121.25 27.1025 121.148 27.1445 121.028 27.1445H118.778ZM132.685 27.3245C132.037 27.3245 131.455 27.2045 130.939 26.9645C130.435 26.7125 130.033 26.3765 129.733 25.9565C129.433 25.5365 129.283 25.0625 129.283 24.5345C129.283 23.6825 129.631 23.0105 130.327 22.5185C131.023 22.0145 131.947 21.6725 133.099 21.4925L135.349 21.1505V20.8985C135.349 20.4665 135.259 20.1365 135.079 19.9085C134.899 19.6805 134.569 19.5665 134.089 19.5665C133.753 19.5665 133.477 19.6325 133.261 19.7645C133.057 19.8965 132.895 20.0765 132.775 20.3045C132.667 20.4605 132.517 20.5385 132.325 20.5385H130.309C130.177 20.5385 130.075 20.5025 130.003 20.4305C129.931 20.3465 129.901 20.2505 129.913 20.1425C129.913 19.9265 129.991 19.6805 130.147 19.4045C130.315 19.1165 130.567 18.8345 130.903 18.5585C131.239 18.2825 131.671 18.0545 132.199 17.8745C132.727 17.6945 133.363 17.6045 134.107 17.6045C134.887 17.6045 135.553 17.6945 136.105 17.8745C136.657 18.0545 137.101 18.3065 137.437 18.6305C137.785 18.9545 138.043 19.3385 138.211 19.7825C138.379 20.2145 138.463 20.6945 138.463 21.2225V26.6945C138.463 26.8265 138.415 26.9345 138.319 27.0185C138.235 27.1025 138.133 27.1445 138.013 27.1445H135.925C135.793 27.1445 135.685 27.1025 135.601 27.0185C135.517 26.9345 135.475 26.8265 135.475 26.6945V26.0645C135.319 26.2925 135.109 26.5025 134.845 26.6945C134.581 26.8865 134.269 27.0365 133.909 27.1445C133.561 27.2645 133.153 27.3245 132.685 27.3245ZM133.531 25.2725C133.879 25.2725 134.191 25.2005 134.467 25.0565C134.755 24.9005 134.977 24.6665 135.133 24.3545C135.301 24.0305 135.385 23.6285 135.385 23.1485V22.8965L133.855 23.1665C133.291 23.2625 132.877 23.4125 132.613 23.6165C132.361 23.8085 132.235 24.0365 132.235 24.3005C132.235 24.5045 132.295 24.6785 132.415 24.8225C132.535 24.9665 132.691 25.0805 132.883 25.1645C133.075 25.2365 133.291 25.2725 133.531 25.2725Z" fill="#4285F4"/>
<path d="M14.1733 6.55754C15.5622 6.00863 17.055 6.63898 17.5068 7.96482C17.8527 8.97992 17.4877 10.1075 16.6756 10.8272L17.0709 12.035L17.7304 12.8354C17.8809 13.0185 18.1146 13.1008 18.3521 13.0627C18.9924 12.9598 19.6265 12.936 20.2456 12.9839C20.4553 13.0004 20.6667 12.9209 20.8219 12.7626L21.3275 12.2487L21.7204 11.1327C21.4238 10.7 21.3353 10.1169 21.5335 9.55366C21.8698 8.59885 22.8975 8.07747 23.7892 8.43485C24.5573 8.7423 24.9555 9.63215 24.705 10.4805C24.5459 11.0208 24.1691 11.434 23.7134 11.6472L23.2784 12.8839L23.3516 13.555C23.3768 13.7857 23.5029 13.9839 23.6919 14.0989C24.3274 14.488 24.9076 14.97 25.4132 15.5327C25.583 15.7221 25.8422 15.7972 26.0948 15.7361L27.3953 15.4224L28.8793 14.5278C28.9073 13.7766 29.3111 13.038 29.9976 12.6241C31.0356 11.9986 32.3189 12.3543 32.8338 13.4215C33.2986 14.3842 32.9565 15.6247 32.0498 16.2564C31.3418 16.7488 30.494 16.7593 29.8501 16.3796L28.3573 17.279L27.5118 18.217C27.2849 18.4687 27.197 18.817 27.2723 19.1379C27.2727 19.1398 27.273 19.141 27.2735 19.1429C27.402 19.696 27.474 20.2537 27.495 20.8082C27.5069 21.1385 27.678 21.4305 27.9544 21.5796L29.009 22.1481L31.1205 22.4972C31.504 22.1444 32.024 21.9628 32.5479 22.0489C33.4873 22.2045 34.0688 23.1617 33.7999 24.1533C33.5689 25.0024 32.7596 25.5891 31.9324 25.5059C31.3682 25.4491 30.9208 25.1083 30.6884 24.6381L28.5632 24.2871L27.2408 24.4978C26.9969 24.5372 26.7805 24.7029 26.6751 24.9388C26.2558 25.8697 25.6887 26.7319 24.997 27.4828C24.8252 27.6693 24.7555 27.9307 24.8095 28.1715L25.101 29.4825L25.8735 30.7777C26.7668 30.6095 27.6814 30.9801 28.1719 31.8028C28.8314 32.908 28.4777 34.4116 27.3835 35.1743C26.29 35.9369 24.8375 35.6681 24.1642 34.5773C23.6927 33.8137 23.7135 32.852 24.1337 32.0759L23.3135 30.7012L22.2828 29.8306C22.1301 29.7009 21.9181 29.6722 21.7255 29.7494C21.5117 29.8351 21.2939 29.9125 21.0715 29.9812C19.863 30.3545 18.6525 30.4371 17.5078 30.2703C17.34 30.2463 17.1662 30.302 17.034 30.4227L16.4537 30.9543L16.003 32.0495C16.2754 32.5005 16.3321 33.0894 16.1049 33.6419C15.7189 34.5796 14.6683 35.0423 13.8003 34.6329C13.0529 34.2804 12.7039 33.3659 12.9984 32.5304C13.1859 31.9982 13.5822 31.6062 14.0473 31.4191L14.5466 30.2053L14.4886 29.1555C13.6621 28.6337 12.9324 27.9533 12.3428 27.1402L10.8995 27.3353L9.53351 28.0736C9.51662 29.0151 9.02717 29.9265 8.19915 30.3868C7.02914 31.0368 5.62723 30.541 5.06828 29.2787C4.50947 28.0171 5.00414 26.4673 6.17415 25.8173C7.04973 25.3307 8.05457 25.4858 8.73928 26.1239L10.0276 25.4272L10.9361 24.4128C10.9955 24.3464 11.0193 24.255 10.9997 24.1709L10.9994 24.1697C10.635 22.602 10.7202 21.0026 11.169 19.5205C11.1931 19.4392 11.179 19.3528 11.1288 19.2904L10.3939 18.3683L8.7796 17.5255C8.32258 17.7473 7.78748 17.7642 7.3239 17.5219C6.48643 17.0842 6.21054 15.977 6.74093 15.0937C7.20653 14.3191 8.16199 13.9996 8.92084 14.3641C9.41205 14.5999 9.7205 15.0608 9.80127 15.5792L11.4156 16.422L12.579 16.4983C12.6597 16.5039 12.7396 16.4657 12.7928 16.3984C13.3404 15.7001 13.9865 15.0785 14.7154 14.562C14.9154 14.4196 15.0436 14.1903 15.0534 13.9448L15.0955 12.841L14.6738 11.5539C13.6846 11.5119 12.8051 10.9157 12.4763 9.95157C12.0244 8.62573 12.7843 7.10582 14.1733 6.55754Z" fill="#58B7EC"/>
<path d="M25.1626 19.8044C24.3715 16.401 21.0335 14.4751 17.7069 15.5025C14.3804 16.53 12.325 20.1219 13.1161 23.5252C13.9072 26.9285 17.2452 28.8545 20.5717 27.827C23.8983 26.7995 25.9536 23.2077 25.1626 19.8044Z" fill="#8AA2F5"/>
<path d="M20.2097 26.0258C17.2406 26.9143 14.2353 25.3752 13.0873 22.5352C13.116 22.8562 13.1682 23.1782 13.2451 23.4988C14.0651 26.9168 17.3858 28.8926 20.6623 27.9121C23.9387 26.9316 25.9299 23.3662 25.1099 19.9483C25.033 19.6276 24.934 19.3196 24.8152 19.0256C25.0924 22.1261 23.1787 25.1374 20.2097 26.0258Z" fill="#727FF0"/>
<path d="M11.1351 35.353C10.9067 34.3799 9.95612 33.8252 9.01196 34.114C8.0678 34.4027 7.48759 35.4256 7.71603 36.3986C7.94446 37.3716 8.89503 37.9263 9.83919 37.6376C10.7833 37.3488 11.3636 36.326 11.1351 35.353Z" fill="#55BEEB"/>
<path d="M32.7496 29.659C32.5987 29.0163 31.9708 28.6499 31.3472 28.8406C30.7236 29.0313 30.3403 29.7069 30.4912 30.3496C30.6421 30.9923 31.27 31.3587 31.8936 31.168C32.5172 30.9773 32.9004 30.3017 32.7496 29.659Z" fill="#55BEEB"/>
<path d="M29.6593 7.12036C29.4371 6.17372 28.5123 5.63405 27.5938 5.91496C26.6752 6.19588 26.1107 7.19101 26.333 8.13765C26.5552 9.08428 27.48 9.62396 28.3985 9.34304C29.3171 9.06213 29.8816 8.067 29.6593 7.12036Z" fill="#55BEEB"/>
<path d="M19.5515 23.6003C19.3443 22.7178 18.4821 22.2146 17.6257 22.4765C16.7694 22.7384 16.2431 23.6662 16.4503 24.5488C16.6575 25.4313 17.5197 25.9344 18.376 25.6725C19.2324 25.4107 19.7587 24.4829 19.5515 23.6003Z" fill="#55BEEB"/>
<path d="M23.4472 21.0797C23.3061 20.479 22.7193 20.1365 22.1364 20.3148C21.5535 20.493 21.1953 21.1245 21.3363 21.7252C21.4773 22.326 22.0642 22.6684 22.6471 22.4902C23.23 22.3119 23.5882 21.6804 23.4472 21.0797Z" fill="#55BEEB"/>
<path d="M19.3124 18.531C19.1939 18.0266 18.7012 17.739 18.2117 17.8887C17.7222 18.0384 17.4214 18.5687 17.5398 19.0731C17.6583 19.5776 18.1511 19.8651 18.6405 19.7154C19.13 19.5658 19.4308 19.0355 19.3124 18.531Z" fill="#55BEEB"/>
</svg>
